<?xml version="1.0" encoding="UTF-8"?>
<!DOCTYPE svg PUBLIC "-//W3C//DTD SVG 1.1//EN" "http://www.w3.org/Graphics/SVG/1.1/DTD/svg11.dtd">
<svg xmlns="http://www.w3.org/2000/svg" version="1.1" width="100px" height="90px" style="shape-rendering:geometricPrecision; text-rendering:geometricPrecision; image-rendering:optimizeQuality; fill-rule:evenodd; clip-rule:evenodd" xmlns:xlink="http://www.w3.org/1999/xlink">
<g><path style="opacity:0.341" fill="#2e2e2e" d="M 48.5,8.5 C 48.7352,7.90326 49.2352,7.56993 50,7.5C 51.4946,9.16325 53.328,10.1632 55.5,10.5C 55.5,10.8333 55.5,11.1667 55.5,11.5C 54.0413,11.5674 52.7079,11.2341 51.5,10.5C 50.8333,10.5 50.5,10.1667 50.5,9.5C 50.1583,8.66175 49.4916,8.32842 48.5,8.5 Z"/></g>
<g><path style="opacity:0.914" fill="#505050" d="M 48.5,8.5 C 49.4916,8.32842 50.1583,8.66175 50.5,9.5C 48.8235,10.1834 48.1568,11.5168 48.5,13.5C 48.1667,13.5 47.8333,13.5 47.5,13.5C 47.5,12.1667 47.5,10.8333 47.5,9.5C 47.5,8.83333 47.8333,8.5 48.5,8.5 Z"/></g>
<g><path style="opacity:1" fill="#acacac" d="M 50.5,9.5 C 50.5,10.1667 50.8333,10.5 51.5,10.5C 50.8902,11.391 50.5569,12.391 50.5,13.5C 49.8333,13.5 49.1667,13.5 48.5,13.5C 48.1568,11.5168 48.8235,10.1834 50.5,9.5 Z"/></g>
<g><path style="opacity:0.361" fill="#1f1f1f" d="M 55.5,10.5 C 57.0418,11.3007 58.7085,11.634 60.5,11.5C 60.5,11.8333 60.5,12.1667 60.5,12.5C 58.4458,12.3653 56.7791,13.032 55.5,14.5C 55.5,13.5 55.5,12.5 55.5,11.5C 55.5,11.1667 55.5,10.8333 55.5,10.5 Z"/></g>
<g><path style="opacity:0.4" fill="#313131" d="M 60.5,12.5 C 60.5,12.1667 60.5,11.8333 60.5,11.5C 61.5,11.5 62.5,11.5 63.5,11.5C 63.2876,14.7124 61.6209,16.7124 58.5,17.5C 58.5,17.1667 58.5,16.8333 58.5,16.5C 58.5,16.1667 58.5,15.8333 58.5,15.5C 60.1958,15.3146 61.5291,14.4813 62.5,13C 61.9056,12.5357 61.2389,12.369 60.5,12.5 Z"/></g>
<g><path style="opacity:0.2" fill="#2e2e2e" d="M 47.5,9.5 C 47.5,10.8333 47.5,12.1667 47.5,13.5C 46.1667,12.8333 44.8333,12.1667 43.5,11.5C 44.6715,10.6554 46.0048,9.98869 47.5,9.5 Z"/></g>
<g><path style="opacity:0.522" fill="#5b5b5b" d="M 51.5,10.5 C 52.7079,11.2341 54.0413,11.5674 55.5,11.5C 55.5,12.5 55.5,13.5 55.5,14.5C 54.7784,14.0825 54.2784,13.4158 54,12.5C 53.7216,13.4158 53.2216,14.0825 52.5,14.5C 51.5084,14.6716 50.8417,14.3382 50.5,13.5C 50.5569,12.391 50.8902,11.391 51.5,10.5 Z"/></g>
<g><path style="opacity:0.2" fill="#393939" d="M 43.5,11.5 C 44.1098,12.391 44.4431,13.391 44.5,14.5C 42.1707,16.0024 40.8373,15.3357 40.5,12.5C 40.8333,12.5 41.1667,12.5 41.5,12.5C 42.1667,12.1667 42.8333,11.8333 43.5,11.5 Z"/></g>
<g><path style="opacity:1" fill="#7d7d7d" d="M 43.5,11.5 C 44.8333,12.1667 46.1667,12.8333 47.5,13.5C 47.8333,13.5 48.1667,13.5 48.5,13.5C 47.4324,14.4345 46.099,14.7678 44.5,14.5C 44.4431,13.391 44.1098,12.391 43.5,11.5 Z"/></g>
<g><path style="opacity:0.973" fill="#555555" d="M 60.5,12.5 C 60.1583,13.3382 59.4916,13.6716 58.5,13.5C 57.8485,14.0906 57.1818,14.7573 56.5,15.5C 55.8933,15.3764 55.56,15.0431 55.5,14.5C 56.7791,13.032 58.4458,12.3653 60.5,12.5 Z"/></g>
<g><path style="opacity:1" fill="#c0c0c0" d="M 60.5,12.5 C 61.2389,12.369 61.9056,12.5357 62.5,13C 61.5291,14.4813 60.1958,15.3146 58.5,15.5C 58.5,14.8333 58.5,14.1667 58.5,13.5C 59.4916,13.6716 60.1583,13.3382 60.5,12.5 Z"/></g>
<g><path style="opacity:0.392" fill="#333333" d="M 41.5,12.5 C 41.1667,12.5 40.8333,12.5 40.5,12.5C 38.1759,12.8773 37.5092,13.8773 38.5,15.5C 37.5,15.5 36.5,15.5 35.5,15.5C 35.5,14.1667 35.5,12.8333 35.5,11.5C 37.7354,11.2053 39.7354,11.5386 41.5,12.5 Z"/></g>
<g><path style="opacity:1" fill="#eaeaeb" d="M 48.5,13.5 C 49.1667,13.5 49.8333,13.5 50.5,13.5C 50.8417,14.3382 51.5084,14.6716 52.5,14.5C 52.5,14.8333 52.5,15.1667 52.5,15.5C 49.6146,15.8064 46.9479,15.4731 44.5,14.5C 46.099,14.7678 47.4324,14.4345 48.5,13.5 Z"/></g>
<g><path style="opacity:1" fill="#b4b4b6" d="M 40.5,12.5 C 40.8373,15.3357 42.1707,16.0024 44.5,14.5C 46.9479,15.4731 49.6146,15.8064 52.5,15.5C 53.1667,15.5 53.5,15.8333 53.5,16.5C 52.8333,16.5 52.1667,16.5 51.5,16.5C 48.1667,16.5 44.8333,16.5 41.5,16.5C 40.609,15.8902 39.609,15.5569 38.5,15.5C 37.5092,13.8773 38.1759,12.8773 40.5,12.5 Z"/></g>
<g><path style="opacity:1" fill="#d1d0d4" d="M 55.5,14.5 C 55.56,15.0431 55.8933,15.3764 56.5,15.5C 57.1818,14.7573 57.8485,14.0906 58.5,13.5C 58.5,14.1667 58.5,14.8333 58.5,15.5C 58.5,15.8333 58.5,16.1667 58.5,16.5C 56.8333,16.5 55.1667,16.5 53.5,16.5C 53.5,15.8333 53.1667,15.5 52.5,15.5C 52.5,15.1667 52.5,14.8333 52.5,14.5C 53.2216,14.0825 53.7216,13.4158 54,12.5C 54.2784,13.4158 54.7784,14.0825 55.5,14.5 Z"/></g>
<g><path style="opacity:0.039" fill="#1a1a1a" d="M 28.5,20.5 C 27.8999,19.0998 26.8999,18.0998 25.5,17.5C 25.8212,15.9519 26.8212,15.2852 28.5,15.5C 28.5,17.1667 28.5,18.8333 28.5,20.5 Z"/></g>
<g><path style="opacity:1" fill="#646468" d="M 41.5,16.5 C 44.8333,16.5 48.1667,16.5 51.5,16.5C 51.5,16.8333 51.5,17.1667 51.5,17.5C 50.8333,18.1667 50.1667,18.8333 49.5,19.5C 49.6716,20.4916 49.3382,21.1583 48.5,21.5C 47.0813,20.5489 45.4147,20.2155 43.5,20.5C 42.8333,19.1667 42.1667,17.8333 41.5,16.5 Z"/></g>
<g><path style="opacity:1" fill="#68676e" d="M 51.5,17.5 C 51.5,17.1667 51.5,16.8333 51.5,16.5C 52.1667,16.5 52.8333,16.5 53.5,16.5C 55.1667,16.5 56.8333,16.5 58.5,16.5C 58.5,16.8333 58.5,17.1667 58.5,17.5C 57.5,18.1667 56.5,18.8333 55.5,19.5C 55.1667,19.5 54.8333,19.5 54.5,19.5C 54.1788,17.9519 53.1788,17.2852 51.5,17.5 Z"/></g>
<g><path style="opacity:0.345" fill="#191919" d="M 66.5,17.5 C 67.9989,16.506 69.6656,16.506 71.5,17.5C 71.5,17.8333 71.5,18.1667 71.5,18.5C 71.1667,18.5 70.8333,18.5 70.5,18.5C 69.8333,18.5 69.5,18.8333 69.5,19.5C 68.7777,18.4489 67.7777,17.7822 66.5,17.5 Z"/></g>
<g><path style="opacity:0.659" fill="#333334" d="M 38.5,15.5 C 39.609,15.5569 40.609,15.8902 41.5,16.5C 42.1667,17.8333 42.8333,19.1667 43.5,20.5C 43.1667,20.5 42.8333,20.5 42.5,20.5C 41.197,18.8577 39.8637,17.1911 38.5,15.5 Z"/></g>
<g><path style="opacity:0.707" fill="#343434" d="M 76.5,18.5 C 76.5,19.5 76.5,20.5 76.5,21.5C 76.1667,21.5 75.8333,21.5 75.5,21.5C 74.9181,20.0689 74.0848,18.7356 73,17.5C 72.6174,18.056 72.1174,18.3893 71.5,18.5C 71.5,18.1667 71.5,17.8333 71.5,17.5C 72.287,15.8958 73.6203,15.2291 75.5,15.5C 75.2627,16.791 75.596,17.791 76.5,18.5 Z"/></g>
<g><path style="opacity:0.933" fill="#232325" d="M 32.5,19.5 C 32.5,20.1667 32.5,20.8333 32.5,21.5C 31.8826,21.3893 31.3826,21.056 31,20.5C 30.7216,21.4158 30.2216,22.0825 29.5,22.5C 28.8333,22.5 28.5,22.1667 28.5,21.5C 28.5,21.1667 28.5,20.8333 28.5,20.5C 29.404,19.791 29.7373,18.791 29.5,17.5C 31.1788,17.2852 32.1788,17.9519 32.5,19.5 Z"/></g>
<g><path style="opacity:1" fill="#c7c6ca" d="M 46.5,17.5 C 48.337,17.6395 48.6704,18.3061 47.5,19.5C 46.7025,19.0431 46.3691,18.3764 46.5,17.5 Z"/></g>
<g><path style="opacity:1" fill="#9f9ea3" d="M 51.5,17.5 C 53.1788,17.2852 54.1788,17.9519 54.5,19.5C 52.8333,19.5 51.1667,19.5 49.5,19.5C 50.1667,18.8333 50.8333,18.1667 51.5,17.5 Z"/></g>
<g><path style="opacity:0.842" fill="#19191a" d="M 25.5,17.5 C 25.5,18.5 25.5,19.5 25.5,20.5C 25.5912,22.6977 24.9245,23.0311 23.5,21.5C 23.2291,19.6203 23.8958,18.287 25.5,17.5 Z"/></g>
<g><path style="opacity:0.696" fill="#1b1b1c" d="M 36.5,20.5 C 36.1667,20.5 35.8333,20.5 35.5,20.5C 34.8485,21.0906 34.1818,21.7573 33.5,22.5C 32.8933,22.3764 32.56,22.0431 32.5,21.5C 32.5,20.8333 32.5,20.1667 32.5,19.5C 34.2633,18.0462 35.5967,18.3796 36.5,20.5 Z"/></g>
<g><path style="opacity:1" fill="#cbcbcb" d="M 66.5,19.5 C 66.5,20.1667 66.5,20.8333 66.5,21.5C 65.8333,21.5 65.5,21.8333 65.5,22.5C 64.8333,22.8333 64.1667,23.1667 63.5,23.5C 63.5,23.1667 63.5,22.8333 63.5,22.5C 63.8564,20.8102 64.8564,19.8102 66.5,19.5 Z"/></g>
<g><path style="opacity:0.135" fill="#323232" d="M 64.5,18.5 C 64.8417,17.6618 65.5084,17.3284 66.5,17.5C 67.7777,17.7822 68.7777,18.4489 69.5,19.5C 70.1667,19.5 70.5,19.1667 70.5,18.5C 70.8333,18.5 71.1667,18.5 71.5,18.5C 71.5,19.1667 71.5,19.8333 71.5,20.5C 69.5,20.5 68.5,21.5 68.5,23.5C 67.8333,22.8333 67.1667,22.1667 66.5,21.5C 66.5,20.8333 66.5,20.1667 66.5,19.5C 67.0674,18.5798 66.4008,18.2465 64.5,18.5 Z"/></g>
<g><path style="opacity:1" fill="#777777" d="M 75.5,21.5 C 74.1667,21.1667 72.8333,20.8333 71.5,20.5C 71.5,19.8333 71.5,19.1667 71.5,18.5C 72.1174,18.3893 72.6174,18.056 73,17.5C 74.0848,18.7356 74.9181,20.0689 75.5,21.5 Z"/></g>
<g><path style="opacity:0.855" fill="#202020" d="M 76.5,18.5 C 79.0219,19.6649 79.0219,20.9982 76.5,22.5C 76.5,22.1667 76.5,21.8333 76.5,21.5C 76.5,20.5 76.5,19.5 76.5,18.5 Z"/></g>
<g><path style="opacity:1" fill="#6e6e6f" d="M 25.5,17.5 C 26.8999,18.0998 27.8999,19.0998 28.5,20.5C 28.5,20.8333 28.5,21.1667 28.5,21.5C 27.8333,21.5 27.5,21.8333 27.5,22.5C 26.8333,21.8333 26.1667,21.1667 25.5,20.5C 25.5,19.5 25.5,18.5 25.5,17.5 Z"/></g>
<g><path style="opacity:1" fill="#38373a" d="M 49.5,19.5 C 51.1667,19.5 52.8333,19.5 54.5,19.5C 54.8333,19.5 55.1667,19.5 55.5,19.5C 54.4489,20.2223 53.7822,21.2223 53.5,22.5C 53.1667,22.5 52.8333,22.5 52.5,22.5C 52.6309,21.6236 52.2975,20.9569 51.5,20.5C 50.5713,21.6888 50.238,23.0222 50.5,24.5C 50.5,24.8333 50.5,25.1667 50.5,25.5C 49.8333,24.8333 49.1667,24.1667 48.5,23.5C 48.5,22.8333 48.5,22.1667 48.5,21.5C 49.3382,21.1583 49.6716,20.4916 49.5,19.5 Z"/></g>
<g><path style="opacity:0.102" fill="#1a191d" d="M 58.5,17.5 C 58.1075,19.2838 57.4408,20.9505 56.5,22.5C 55.5,22.5 54.5,22.5 53.5,22.5C 53.7822,21.2223 54.4489,20.2223 55.5,19.5C 56.5,18.8333 57.5,18.1667 58.5,17.5 Z"/></g>
<g><path style="opacity:0.571" fill="#191919" d="M 22.5,23.5 C 22.5,24.5 22.5,25.5 22.5,26.5C 21.8485,25.9094 21.1818,25.2427 20.5,24.5C 19.8933,24.6236 19.56,24.9569 19.5,25.5C 19.1667,25.5 18.8333,25.5 18.5,25.5C 18.1667,25.5 17.8333,25.5 17.5,25.5C 18.1736,20.3835 19.8403,19.7168 22.5,23.5 Z"/></g>
<g><path style="opacity:0.322" fill="#242427" d="M 42.5,20.5 C 42.8333,20.5 43.1667,20.5 43.5,20.5C 45.4147,20.2155 47.0813,20.5489 48.5,21.5C 47.209,21.2627 46.209,21.596 45.5,22.5C 44.8333,22.5 44.1667,22.5 43.5,22.5C 43.1667,22.5 42.8333,22.5 42.5,22.5C 42.5,21.8333 42.5,21.1667 42.5,20.5 Z"/></g>
<g><path style="opacity:0.561" fill="#3f3f3f" d="M 71.5,20.5 C 72.8333,20.8333 74.1667,21.1667 75.5,21.5C 75.8333,21.5 76.1667,21.5 76.5,21.5C 76.5,21.8333 76.5,22.1667 76.5,22.5C 75.8333,22.5 75.1667,22.5 74.5,22.5C 73.391,22.5569 72.391,22.8902 71.5,23.5C 71.5,22.5 71.5,21.5 71.5,20.5 Z"/></g>
<g><path style="opacity:0.525" fill="#252527" d="M 25.5,20.5 C 26.1667,21.1667 26.8333,21.8333 27.5,22.5C 27.8333,23.1667 28.1667,23.8333 28.5,24.5C 27.391,24.4431 26.391,24.1098 25.5,23.5C 24.6618,23.8417 24.3284,24.5084 24.5,25.5C 23.8333,24.8333 23.1667,24.1667 22.5,23.5C 22.3284,22.5084 22.6618,21.8417 23.5,21.5C 24.9245,23.0311 25.5912,22.6977 25.5,20.5 Z"/></g>
<g><path style="opacity:1" fill="#69686b" d="M 32.5,21.5 C 32.56,22.0431 32.8933,22.3764 33.5,22.5C 34.1818,21.7573 34.8485,21.0906 35.5,20.5C 35.5,20.8333 35.5,21.1667 35.5,21.5C 35.6716,22.4916 35.3382,23.1583 34.5,23.5C 33.5084,23.3284 32.8417,23.6618 32.5,24.5C 31.2905,24.0679 30.2905,23.4013 29.5,22.5C 30.2216,22.0825 30.7216,21.4158 31,20.5C 31.3826,21.056 31.8826,21.3893 32.5,21.5 Z"/></g>
<g><path style="opacity:0.431" fill="#313133" d="M 35.5,21.5 C 35.5,21.1667 35.5,20.8333 35.5,20.5C 35.8333,20.5 36.1667,20.5 36.5,20.5C 38.1417,22.0808 40.1417,22.7475 42.5,22.5C 42.8333,22.5 43.1667,22.5 43.5,22.5C 43.1667,23.1667 42.8333,23.8333 42.5,24.5C 41.8333,24.5 41.1667,24.5 40.5,24.5C 38.7798,23.6923 37.1131,22.6923 35.5,21.5 Z"/></g>
<g><path style="opacity:0.602" fill="#464646" d="M 64.5,18.5 C 66.4008,18.2465 67.0674,18.5798 66.5,19.5C 64.8564,19.8102 63.8564,20.8102 63.5,22.5C 61.0479,23.0654 58.7146,23.7321 56.5,24.5C 55.8333,24.5 55.5,24.8333 55.5,25.5C 54.7777,24.4489 53.7777,23.7822 52.5,23.5C 52.5,23.1667 52.5,22.8333 52.5,22.5C 52.8333,22.5 53.1667,22.5 53.5,22.5C 54.5,22.5 55.5,22.5 56.5,22.5C 60.307,23.2259 62.9737,21.8926 64.5,18.5 Z"/></g>
<g><path style="opacity:1" fill="#adadad" d="M 71.5,20.5 C 71.5,21.5 71.5,22.5 71.5,23.5C 70.5,23.5 69.5,23.5 68.5,23.5C 68.5,21.5 69.5,20.5 71.5,20.5 Z"/></g>
<g><path style="opacity:1" fill="#b6b5b9" d="M 28.5,21.5 C 28.5,22.1667 28.8333,22.5 29.5,22.5C 30.2905,23.4013 31.2905,24.0679 32.5,24.5C 32.5,25.1667 32.1667,25.5 31.5,25.5C 30.391,25.4431 29.391,25.1098 28.5,24.5C 28.1667,23.8333 27.8333,23.1667 27.5,22.5C 27.5,21.8333 27.8333,21.5 28.5,21.5 Z"/></g>
<g><path style="opacity:1" fill="#a6a6a8" d="M 34.5,23.5 C 34.8417,24.3382 35.5084,24.6716 36.5,24.5C 35.5,25.1667 34.5,25.8333 33.5,26.5C 33.1667,26.5 32.8333,26.5 32.5,26.5C 31.8333,26.5 31.5,26.1667 31.5,25.5C 32.1667,25.5 32.5,25.1667 32.5,24.5C 32.8417,23.6618 33.5084,23.3284 34.5,23.5 Z"/></g>
<g><path style="opacity:1" fill="#747476" d="M 35.5,21.5 C 37.1131,22.6923 38.7798,23.6923 40.5,24.5C 39.8333,24.5 39.1667,24.5 38.5,24.5C 37.8333,24.5 37.1667,24.5 36.5,24.5C 35.5084,24.6716 34.8417,24.3382 34.5,23.5C 35.3382,23.1583 35.6716,22.4916 35.5,21.5 Z"/></g>
<g><path style="opacity:1" fill="#bababb" d="M 52.5,22.5 C 52.5,22.8333 52.5,23.1667 52.5,23.5C 52.5569,24.609 52.8902,25.609 53.5,26.5C 53.5,26.8333 53.5,27.1667 53.5,27.5C 52.2719,26.6935 51.2719,25.6935 50.5,24.5C 50.238,23.0222 50.5713,21.6888 51.5,20.5C 52.2975,20.9569 52.6309,21.6236 52.5,22.5 Z"/></g>
<g><path style="opacity:0.647" fill="#191919" d="M 66.5,21.5 C 67.1667,22.1667 67.8333,22.8333 68.5,23.5C 69.1667,24.1667 69.8333,24.8333 70.5,25.5C 70.1667,25.5 69.8333,25.5 69.5,25.5C 68.5,25.5 67.5,25.5 66.5,25.5C 66.5,24.1667 66.5,22.8333 66.5,21.5 Z"/></g>
<g><path style="opacity:0.702" fill="#1d1d1d" d="M 74.5,22.5 C 76.8549,23.9582 76.5215,25.2915 73.5,26.5C 73.2178,25.2223 72.5511,24.2223 71.5,23.5C 72.391,22.8902 73.391,22.5569 74.5,22.5 Z"/></g>
<g><path style="opacity:1" fill="#b2b2b3" d="M 43.5,22.5 C 44.1667,22.5 44.8333,22.5 45.5,22.5C 47.5499,23.3218 47.2165,24.3218 44.5,25.5C 43.8333,25.5 43.1667,25.5 42.5,25.5C 42.5,25.1667 42.5,24.8333 42.5,24.5C 42.8333,23.8333 43.1667,23.1667 43.5,22.5 Z"/></g>
<g><path style="opacity:0.431" fill="#3e3e3f" d="M 45.5,22.5 C 46.209,21.596 47.209,21.2627 48.5,21.5C 48.5,22.1667 48.5,22.8333 48.5,23.5C 46.4768,26.5203 43.8102,28.8536 40.5,30.5C 41.8333,28.8333 43.1667,27.1667 44.5,25.5C 47.2165,24.3218 47.5499,23.3218 45.5,22.5 Z"/></g>
<g><path style="opacity:1" fill="#979796" d="M 63.5,22.5 C 63.5,22.8333 63.5,23.1667 63.5,23.5C 62.8333,24.1667 62.1667,24.8333 61.5,25.5C 59.7085,25.634 58.0418,25.3007 56.5,24.5C 58.7146,23.7321 61.0479,23.0654 63.5,22.5 Z"/></g>
<g><path style="opacity:1" fill="#4a4a49" d="M 65.5,22.5 C 65.7148,24.1788 65.0481,25.1788 63.5,25.5C 63.1667,25.5 62.8333,25.5 62.5,25.5C 62.1667,25.5 61.8333,25.5 61.5,25.5C 62.1667,24.8333 62.8333,24.1667 63.5,23.5C 64.1667,23.1667 64.8333,22.8333 65.5,22.5 Z"/></g>
<g><path style="opacity:0.937" fill="#424242" d="M 68.5,23.5 C 69.5,23.5 70.5,23.5 71.5,23.5C 72.5511,24.2223 73.2178,25.2223 73.5,26.5C 73.1667,26.5 72.8333,26.5 72.5,26.5C 72.1583,25.6618 71.4916,25.3284 70.5,25.5C 69.8333,24.8333 69.1667,24.1667 68.5,23.5 Z"/></g>
<g><path style="opacity:0.329" fill="#272729" d="M 25.5,23.5 C 26.5907,25.5342 28.2574,26.8676 30.5,27.5C 30.1667,27.5 29.8333,27.5 29.5,27.5C 27.4471,27.5979 25.7804,26.9313 24.5,25.5C 24.3284,24.5084 24.6618,23.8417 25.5,23.5 Z"/></g>
<g><path style="opacity:1" fill="#666669" d="M 25.5,23.5 C 26.391,24.1098 27.391,24.4431 28.5,24.5C 29.391,25.1098 30.391,25.4431 31.5,25.5C 31.5,26.1667 31.8333,26.5 32.5,26.5C 32.5,26.8333 32.5,27.1667 32.5,27.5C 31.8333,27.5 31.1667,27.5 30.5,27.5C 28.2574,26.8676 26.5907,25.5342 25.5,23.5 Z"/></g>
<g><path style="opacity:1" fill="#9a9a9c" d="M 36.5,24.5 C 37.1667,24.5 37.8333,24.5 38.5,24.5C 37.8902,25.391 37.5569,26.391 37.5,27.5C 36.2921,26.7659 34.9587,26.4326 33.5,26.5C 34.5,25.8333 35.5,25.1667 36.5,24.5 Z"/></g>
<g><path style="opacity:0.412" fill="#333333" d="M 55.5,25.5 C 55.5,24.8333 55.8333,24.5 56.5,24.5C 58.0418,25.3007 59.7085,25.634 61.5,25.5C 61.8333,25.5 62.1667,25.5 62.5,25.5C 62.0825,26.2216 61.4158,26.7216 60.5,27C 62.1545,27.6077 63.8211,28.1077 65.5,28.5C 65.5,28.8333 65.5,29.1667 65.5,29.5C 64.5,29.5 63.5,29.5 62.5,29.5C 61.791,28.596 60.791,28.2627 59.5,28.5C 58.5637,27.0256 57.2303,26.0256 55.5,25.5 Z"/></g>
<g><path style="opacity:0.592" fill="#2a2a2a" d="M 66.5,21.5 C 66.5,22.8333 66.5,24.1667 66.5,25.5C 67.5,25.5 68.5,25.5 69.5,25.5C 68.7375,26.2679 67.7375,26.7679 66.5,27C 68.6267,28.9098 70.6267,28.7431 72.5,26.5C 72.8333,26.5 73.1667,26.5 73.5,26.5C 72.3282,28.539 70.6616,29.8724 68.5,30.5C 68.1667,30.5 67.8333,30.5 67.5,30.5C 66.5084,30.6716 65.8417,30.3382 65.5,29.5C 65.5,29.1667 65.5,28.8333 65.5,28.5C 65.2178,27.2223 64.5511,26.2223 63.5,25.5C 65.0481,25.1788 65.7148,24.1788 65.5,22.5C 65.5,21.8333 65.8333,21.5 66.5,21.5 Z"/></g>
<g><path style="opacity:0.675" fill="#262629" d="M 19.5,25.5 C 19.56,24.9569 19.8933,24.6236 20.5,24.5C 21.1818,25.2427 21.8485,25.9094 22.5,26.5C 22.7947,28.7354 22.4614,30.7354 21.5,32.5C 21.5,31.8333 21.1667,31.5 20.5,31.5C 19.8506,29.3729 19.5173,27.3729 19.5,25.5 Z"/></g>
<g><path style="opacity:1" fill="#d7d7d8" d="M 38.5,24.5 C 39.1667,24.5 39.8333,24.5 40.5,24.5C 41.1667,24.5 41.8333,24.5 42.5,24.5C 42.5,24.8333 42.5,25.1667 42.5,25.5C 41.8333,26.1667 41.1667,26.8333 40.5,27.5C 39.5,27.5 38.5,27.5 37.5,27.5C 37.5569,26.391 37.8902,25.391 38.5,24.5 Z"/></g>
<g><path style="opacity:0.722" fill="#414141" d="M 50.5,24.5 C 51.2719,25.6935 52.2719,26.6935 53.5,27.5C 54.1667,28.5 54.8333,29.5 55.5,30.5C 55.1667,30.5 54.8333,30.5 54.5,30.5C 52.4131,29.4154 51.0798,27.7488 50.5,25.5C 50.5,25.1667 50.5,24.8333 50.5,24.5 Z"/></g>
<g><path style="opacity:1" fill="#878787" d="M 52.5,23.5 C 53.7777,23.7822 54.7777,24.4489 55.5,25.5C 57.2303,26.0256 58.5637,27.0256 59.5,28.5C 58.1667,28.1667 56.8333,27.8333 55.5,27.5C 54.8333,27.1667 54.1667,26.8333 53.5,26.5C 52.8902,25.609 52.5569,24.609 52.5,23.5 Z"/></g>
<g><path style="opacity:1" fill="#5c5c5c" d="M 69.5,25.5 C 69.8333,25.5 70.1667,25.5 70.5,25.5C 71.4916,25.3284 72.1583,25.6618 72.5,26.5C 70.6267,28.7431 68.6267,28.9098 66.5,27C 67.7375,26.7679 68.7375,26.2679 69.5,25.5 Z"/></g>
<g><path style="opacity:0.412" fill="#242326" d="M 17.5,25.5 C 17.8333,25.5 18.1667,25.5 18.5,25.5C 18.5,26.1667 18.5,26.8333 18.5,27.5C 17.8333,28.1667 17.1667,28.8333 16.5,29.5C 16.1667,29.5 15.8333,29.5 15.5,29.5C 14.7659,28.2921 14.4326,26.9587 14.5,25.5C 15.5,25.5 16.5,25.5 17.5,25.5 Z"/></g>
<g><path style="opacity:1" fill="#5f5e60" d="M 32.5,27.5 C 32.5,27.1667 32.5,26.8333 32.5,26.5C 32.8333,26.5 33.1667,26.5 33.5,26.5C 34.9587,26.4326 36.2921,26.7659 37.5,27.5C 38.5,27.5 39.5,27.5 40.5,27.5C 40.1667,28.5 39.5,29.1667 38.5,29.5C 37.4324,28.5655 36.099,28.2322 34.5,28.5C 33.8333,28.1667 33.1667,27.8333 32.5,27.5 Z"/></g>
<g><path style="opacity:1" fill="#7b7a7d" d="M 42.5,25.5 C 43.1667,25.5 43.8333,25.5 44.5,25.5C 43.1667,27.1667 41.8333,28.8333 40.5,30.5C 39.5,30.5 38.5,30.5 37.5,30.5C 37.5,29.8333 37.8333,29.5 38.5,29.5C 39.5,29.1667 40.1667,28.5 40.5,27.5C 41.1667,26.8333 41.8333,26.1667 42.5,25.5 Z"/></g>
<g><path style="opacity:1" fill="#bdbdbd" d="M 53.5,26.5 C 54.1667,26.8333 54.8333,27.1667 55.5,27.5C 56.6594,29.2503 58.326,30.2503 60.5,30.5C 60.8417,31.3382 61.5084,31.6716 62.5,31.5C 62.5,32.1667 62.1667,32.5 61.5,32.5C 59.5,31.8333 57.5,31.1667 55.5,30.5C 54.8333,29.5 54.1667,28.5 53.5,27.5C 53.5,27.1667 53.5,26.8333 53.5,26.5 Z"/></g>
<g><path style="opacity:0.398" fill="#232323" d="M 29.5,27.5 C 29.8333,27.5 30.1667,27.5 30.5,27.5C 31.1667,27.5 31.8333,27.5 32.5,27.5C 33.1667,27.8333 33.8333,28.1667 34.5,28.5C 34.5,29.1667 34.5,29.8333 34.5,30.5C 32.2646,30.2053 30.2646,30.5386 28.5,31.5C 27.8333,31.5 27.5,31.8333 27.5,32.5C 27.1667,32.5 26.8333,32.5 26.5,32.5C 26.4142,31.5041 26.7476,30.6708 27.5,30C 29.1667,29.6667 30.8333,29.3333 32.5,29C 31.2625,28.7679 30.2625,28.2679 29.5,27.5 Z"/></g>
<g><path style="opacity:0.522" fill="#3b3b3d" d="M 34.5,28.5 C 36.099,28.2322 37.4324,28.5655 38.5,29.5C 37.8333,29.5 37.5,29.8333 37.5,30.5C 36.5,30.5 35.5,30.5 34.5,30.5C 34.5,29.8333 34.5,29.1667 34.5,28.5 Z"/></g>
<g><path style="opacity:1" fill="#7f7f7f" d="M 55.5,27.5 C 56.8333,27.8333 58.1667,28.1667 59.5,28.5C 60.791,28.2627 61.791,28.596 62.5,29.5C 62.1583,30.3382 61.4916,30.6716 60.5,30.5C 58.326,30.2503 56.6594,29.2503 55.5,27.5 Z"/></g>
<g><path style="opacity:0.501" fill="#262529" d="M 15.5,29.5 C 15.8333,29.5 16.1667,29.5 16.5,29.5C 16.2322,31.099 16.5655,32.4324 17.5,33.5C 17.5569,34.609 17.8902,35.609 18.5,36.5C 18.5,36.8333 18.5,37.1667 18.5,37.5C 18.1667,37.5 17.8333,37.5 17.5,37.5C 15.3207,35.0082 14.654,32.3415 15.5,29.5 Z"/></g>
<g><path style="opacity:1" fill="#636268" d="M 18.5,27.5 C 18.5,29.1667 18.5,30.8333 18.5,32.5C 18.5,33.1667 18.1667,33.5 17.5,33.5C 16.5655,32.4324 16.2322,31.099 16.5,29.5C 17.1667,28.8333 17.8333,28.1667 18.5,27.5 Z"/></g>
<g><path style="opacity:1" fill="#727272" d="M 28.5,31.5 C 30.2646,30.5386 32.2646,30.2053 34.5,30.5C 35.5,30.5 36.5,30.5 37.5,30.5C 35.8333,31.1667 34.1667,31.8333 32.5,32.5C 31.5,32.5 30.5,32.5 29.5,32.5C 29.5,31.8333 29.1667,31.5 28.5,31.5 Z"/></g>
<g><path style="opacity:0.459" fill="#333335" d="M 54.5,31.5 C 55.1098,32.391 55.4431,33.391 55.5,34.5C 54.8333,34.1667 54.1667,33.8333 53.5,33.5C 52.7095,32.5987 51.7095,31.9321 50.5,31.5C 48.5168,31.1568 47.1834,31.8235 46.5,33.5C 46.1667,33.5 45.8333,33.5 45.5,33.5C 45.1667,33.5 44.8333,33.5 44.5,33.5C 44.5,32.5 44.5,31.5 44.5,30.5C 46.0603,30.4809 47.5603,30.1476 49,29.5C 50.8003,30.3195 52.6336,30.9862 54.5,31.5 Z"/></g>
<g><path style="opacity:1" fill="#939393" d="M 62.5,29.5 C 63.5,29.5 64.5,29.5 65.5,29.5C 65.8417,30.3382 66.5084,30.6716 67.5,30.5C 67.5,31.8333 66.8333,32.5 65.5,32.5C 64.391,32.4431 63.391,32.1098 62.5,31.5C 61.5084,31.6716 60.8417,31.3382 60.5,30.5C 61.4916,30.6716 62.1583,30.3382 62.5,29.5 Z"/></g>
<g><path style="opacity:0.796" fill="#232325" d="M 84.5,32.5 C 84.5,33.5 84.5,34.5 84.5,35.5C 82.6701,31.3922 81.6701,31.7255 81.5,36.5C 80.596,35.791 80.2627,34.791 80.5,33.5C 80.2222,31.6536 80.8888,30.3202 82.5,29.5C 83.9185,30.0047 84.5852,31.0047 84.5,32.5 Z"/></g>
<g><path style="opacity:1" fill="#7c7b80" d="M 18.5,25.5 C 18.8333,25.5 19.1667,25.5 19.5,25.5C 19.5173,27.3729 19.8506,29.3729 20.5,31.5C 19.8333,31.8333 19.1667,32.1667 18.5,32.5C 18.5,30.8333 18.5,29.1667 18.5,27.5C 18.5,26.8333 18.5,26.1667 18.5,25.5 Z"/></g>
<g><path style="opacity:0.239" fill="#3e3e3f" d="M 37.5,30.5 C 38.5,30.5 39.5,30.5 40.5,30.5C 39.2196,31.9313 37.5529,32.5979 35.5,32.5C 34.5,32.5 33.5,32.5 32.5,32.5C 34.1667,31.8333 35.8333,31.1667 37.5,30.5 Z"/></g>
<g><path style="opacity:1" fill="#838286" d="M 20.5,31.5 C 20.9227,33.7812 20.256,35.4479 18.5,36.5C 17.8902,35.609 17.5569,34.609 17.5,33.5C 18.1667,33.5 18.5,33.1667 18.5,32.5C 19.1667,32.1667 19.8333,31.8333 20.5,31.5 Z"/></g>
<g><path style="opacity:1" fill="#c1c1c3" d="M 50.5,31.5 C 50.5,32.1667 50.5,32.8333 50.5,33.5C 48.7,32.3948 47.5334,33.0614 47,35.5C 46.5357,34.9056 46.369,34.2389 46.5,33.5C 47.1834,31.8235 48.5168,31.1568 50.5,31.5 Z"/></g>
<g><path style="opacity:0.384" fill="#333332" d="M 54.5,31.5 C 54.5,31.1667 54.5,30.8333 54.5,30.5C 54.8333,30.5 55.1667,30.5 55.5,30.5C 57.5,31.1667 59.5,31.8333 61.5,32.5C 63.3492,33.593 65.0158,34.9263 66.5,36.5C 66.5,37.5 66.5,38.5 66.5,39.5C 63.6904,35.4024 59.6904,32.7357 54.5,31.5 Z"/></g>
<g><path style="opacity:1" fill="#b5b5b5" d="M 62.5,31.5 C 63.391,32.1098 64.391,32.4431 65.5,32.5C 66.1667,33.5 66.8333,34.5 67.5,35.5C 67.5,35.8333 67.5,36.1667 67.5,36.5C 67.1667,36.5 66.8333,36.5 66.5,36.5C 65.0158,34.9263 63.3492,33.593 61.5,32.5C 62.1667,32.5 62.5,32.1667 62.5,31.5 Z"/></g>
<g><path style="opacity:0.576" fill="#282828" d="M 68.5,30.5 C 71.6356,31.4338 73.3023,33.6005 73.5,37C 72.9152,38.3024 72.2485,39.469 71.5,40.5C 71.5,39.8333 71.5,39.1667 71.5,38.5C 71.5674,37.0413 71.2341,35.7079 70.5,34.5C 70.5,33.8333 70.1667,33.5 69.5,33.5C 69.4431,32.391 69.1098,31.391 68.5,30.5 Z"/></g>
<g><path style="opacity:0.337" fill="#353535" d="M 29.5,32.5 C 30.5,32.5 31.5,32.5 32.5,32.5C 33.5,32.5 34.5,32.5 35.5,32.5C 34.0813,33.4511 32.4147,33.7845 30.5,33.5C 30.3389,36.5279 31.0056,39.3612 32.5,42C 32.1918,43.4595 31.5251,44.6261 30.5,45.5C 30.5,44.8333 30.5,44.1667 30.5,43.5C 30.3535,40.5569 29.6868,37.7236 28.5,35C 28.7432,34.0979 29.0766,33.2646 29.5,32.5 Z"/></g>
<g><path style="opacity:1" fill="#747474" d="M 67.5,30.5 C 67.8333,30.5 68.1667,30.5 68.5,30.5C 69.1098,31.391 69.4431,32.391 69.5,33.5C 68.8333,34.1667 68.1667,34.8333 67.5,35.5C 66.8333,34.5 66.1667,33.5 65.5,32.5C 66.8333,32.5 67.5,31.8333 67.5,30.5 Z"/></g>
<g><path style="opacity:0.41" fill="#181818" d="M 12.5,35.5 C 11.596,36.209 11.2627,37.209 11.5,38.5C 11.1667,38.5 10.8333,38.5 10.5,38.5C 10.4606,37.4168 10.1272,36.4168 9.5,35.5C 10.6136,34.2241 11.6136,34.2241 12.5,35.5 Z"/></g>
<g><path style="opacity:1" fill="#bebebe" d="M 28.5,31.5 C 29.1667,31.5 29.5,31.8333 29.5,32.5C 29.0766,33.2646 28.7432,34.0979 28.5,35C 29.6868,37.7236 30.3535,40.5569 30.5,43.5C 30.1667,43.5 29.8333,43.5 29.5,43.5C 29.5,42.8333 29.1667,42.5 28.5,42.5C 27.7929,39.2139 27.4595,35.8806 27.5,32.5C 27.5,31.8333 27.8333,31.5 28.5,31.5 Z"/></g>
<g><path style="opacity:0.776" fill="#373738" d="M 44.5,33.5 C 44.8333,33.5 45.1667,33.5 45.5,33.5C 45.2671,35.0618 44.6005,36.3951 43.5,37.5C 43.5,37.8333 43.5,38.1667 43.5,38.5C 43.1667,38.5 42.8333,38.5 42.5,38.5C 42.5,37.8333 42.5,37.1667 42.5,36.5C 42.9321,35.2905 43.5987,34.2905 44.5,33.5 Z"/></g>
<g><path style="opacity:1" fill="#6e6d71" d="M 50.5,31.5 C 51.7095,31.9321 52.7095,32.5987 53.5,33.5C 53.6716,34.4916 53.3382,35.1583 52.5,35.5C 51.1667,35.5 50.5,36.1667 50.5,37.5C 49.5,37.8333 48.8333,38.5 48.5,39.5C 48.1667,39.5 47.8333,39.5 47.5,39.5C 47.9752,37.2163 48.9752,35.2163 50.5,33.5C 50.5,32.8333 50.5,32.1667 50.5,31.5 Z"/></g>
<g><path style="opacity:1" fill="#626166" d="M 84.5,35.5 C 84.5,35.8333 84.5,36.1667 84.5,36.5C 84.5,36.8333 84.5,37.1667 84.5,37.5C 84.5,38.1667 84.1667,38.5 83.5,38.5C 83.1583,37.6618 82.4916,37.3284 81.5,37.5C 81.5,37.1667 81.5,36.8333 81.5,36.5C 81.6701,31.7255 82.6701,31.3922 84.5,35.5 Z"/></g>
<g><path style="opacity:1" fill="#545358" d="M 53.5,33.5 C 54.1667,33.8333 54.8333,34.1667 55.5,34.5C 55.5,35.5 55.5,36.5 55.5,37.5C 54.5,37.5 53.5,37.5 52.5,37.5C 52.5,36.8333 52.5,36.1667 52.5,35.5C 53.3382,35.1583 53.6716,34.4916 53.5,33.5 Z"/></g>
<g><path style="opacity:1" fill="#d1d1d1" d="M 70.5,34.5 C 71.2341,35.7079 71.5674,37.0413 71.5,38.5C 69.544,40.1751 68.2107,39.8418 67.5,37.5C 68.8999,36.9002 69.8999,35.9002 70.5,34.5 Z"/></g>
<g><path style="opacity:0.763" fill="#18181a" d="M 84.5,32.5 C 86.1042,33.287 86.7709,34.6203 86.5,36.5C 85.8333,36.5 85.1667,36.5 84.5,36.5C 84.5,36.1667 84.5,35.8333 84.5,35.5C 84.5,34.5 84.5,33.5 84.5,32.5 Z"/></g>
<g><path style="opacity:1" fill="#3a3a3c" d="M 20.5,31.5 C 21.1667,31.5 21.5,31.8333 21.5,32.5C 22.1098,33.391 22.4431,34.391 22.5,35.5C 22.5,36.5 22.5,37.5 22.5,38.5C 22.1667,38.5 21.8333,38.5 21.5,38.5C 20.791,37.596 19.791,37.2627 18.5,37.5C 18.5,37.1667 18.5,36.8333 18.5,36.5C 20.256,35.4479 20.9227,33.7812 20.5,31.5 Z"/></g>
<g><path style="opacity:1" fill="#a2a2a4" d="M 50.5,33.5 C 48.9752,35.2163 47.9752,37.2163 47.5,39.5C 46.5326,38.1938 45.1993,37.5271 43.5,37.5C 44.6005,36.3951 45.2671,35.0618 45.5,33.5C 45.8333,33.5 46.1667,33.5 46.5,33.5C 46.369,34.2389 46.5357,34.9056 47,35.5C 47.5334,33.0614 48.7,32.3948 50.5,33.5 Z"/></g>
<g><path style="opacity:1" fill="#818181" d="M 69.5,33.5 C 70.1667,33.5 70.5,33.8333 70.5,34.5C 69.8999,35.9002 68.8999,36.9002 67.5,37.5C 67.5,37.1667 67.5,36.8333 67.5,36.5C 67.5,36.1667 67.5,35.8333 67.5,35.5C 68.1667,34.8333 68.8333,34.1667 69.5,33.5 Z"/></g>
<g><path style="opacity:0.537" fill="#353535" d="M 12.5,35.5 C 14.0481,35.8212 14.7148,36.8212 14.5,38.5C 13.5,38.5 12.5,38.5 11.5,38.5C 11.2627,37.209 11.596,36.209 12.5,35.5 Z"/></g>
<g><path style="opacity:0.91" fill="#373737" d="M 26.5,32.5 C 26.8333,32.5 27.1667,32.5 27.5,32.5C 27.4595,35.8806 27.7929,39.2139 28.5,42.5C 28.5,42.8333 28.5,43.1667 28.5,43.5C 27.8333,43.5 27.1667,43.5 26.5,43.5C 25.1667,43.5 23.8333,43.5 22.5,43.5C 22.5,43.1667 22.5,42.8333 22.5,42.5C 22.8333,42.5 23.1667,42.5 23.5,42.5C 28.1173,42.6427 28.784,40.976 25.5,37.5C 25.5786,35.8717 25.9119,34.2051 26.5,32.5 Z"/></g>
<g><path style="opacity:1" fill="#838286" d="M 52.5,35.5 C 52.5,36.1667 52.5,36.8333 52.5,37.5C 52.3284,38.4916 52.6618,39.1583 53.5,39.5C 53.5,40.1667 53.5,40.8333 53.5,41.5C 52.1667,41.5 50.8333,41.5 49.5,41.5C 49.8333,40.1667 50.1667,38.8333 50.5,37.5C 50.5,36.1667 51.1667,35.5 52.5,35.5 Z"/></g>
<g><path style="opacity:0.4" fill="#2b2a2d" d="M 55.5,34.5 C 56.9313,35.7804 57.5979,37.4471 57.5,39.5C 57.7373,40.791 57.404,41.791 56.5,42.5C 56.5,41.5 56.5,40.5 56.5,39.5C 56.1667,38.8333 55.8333,38.1667 55.5,37.5C 55.5,36.5 55.5,35.5 55.5,34.5 Z"/></g>
<g><path style="opacity:1" fill="#19191d" d="M 80.5,33.5 C 80.2627,34.791 80.596,35.791 81.5,36.5C 81.5,36.8333 81.5,37.1667 81.5,37.5C 81.5,37.8333 81.5,38.1667 81.5,38.5C 80.5,38.5 79.5,38.5 78.5,38.5C 79.0241,36.6943 79.6908,35.0276 80.5,33.5 Z"/></g>
<g><path style="opacity:0.437" fill="#1b1b1b" d="M 84.5,37.5 C 84.5,37.1667 84.5,36.8333 84.5,36.5C 85.1667,36.5 85.8333,36.5 86.5,36.5C 87.8333,38.8333 87.8333,41.1667 86.5,43.5C 86.9465,40.9899 86.2798,38.9899 84.5,37.5 Z"/></g>
<g><path style="opacity:0.706" fill="#2b2b2b" d="M 10.5,38.5 C 10.8333,38.5 11.1667,38.5 11.5,38.5C 12.5,38.5 13.5,38.5 14.5,38.5C 14.5,38.8333 14.5,39.1667 14.5,39.5C 14.1667,39.5 13.8333,39.5 13.5,39.5C 12.3951,40.6005 11.0618,41.2671 9.5,41.5C 8.18543,40.1054 8.51877,39.1054 10.5,38.5 Z"/></g>
<g><path style="opacity:0.475" fill="#3b3b3d" d="M 17.5,37.5 C 17.8333,37.5 18.1667,37.5 18.5,37.5C 18.5,38.1667 18.5,38.8333 18.5,39.5C 17.8333,40.1667 17.1667,40.8333 16.5,41.5C 16.5,40.1667 15.8333,39.5 14.5,39.5C 14.5,39.1667 14.5,38.8333 14.5,38.5C 15.791,38.7373 16.791,38.404 17.5,37.5 Z"/></g>
<g><path style="opacity:1" fill="#757479" d="M 52.5,37.5 C 53.5,37.5 54.5,37.5 55.5,37.5C 55.8333,38.1667 56.1667,38.8333 56.5,39.5C 55.5,39.5 54.5,39.5 53.5,39.5C 52.6618,39.1583 52.3284,38.4916 52.5,37.5 Z"/></g>
<g><path style="opacity:1" fill="#3a3a3b" d="M 84.5,37.5 C 86.2798,38.9899 86.9465,40.9899 86.5,43.5C 86.1667,43.5 85.8333,43.5 85.5,43.5C 85.1692,41.6776 84.5025,40.0109 83.5,38.5C 84.1667,38.5 84.5,38.1667 84.5,37.5 Z"/></g>
<g><path style="opacity:1" fill="#9f9fa1" d="M 18.5,37.5 C 19.791,37.2627 20.791,37.596 21.5,38.5C 21.7148,40.1788 21.0481,41.1788 19.5,41.5C 19.6716,40.5084 19.3382,39.8417 18.5,39.5C 18.5,38.8333 18.5,38.1667 18.5,37.5 Z"/></g>
<g><path style="opacity:0.459" fill="#222224" d="M 22.5,35.5 C 23.224,37.2184 23.8906,39.0517 24.5,41C 23.944,41.3826 23.6107,41.8826 23.5,42.5C 23.1667,42.5 22.8333,42.5 22.5,42.5C 22.5,41.1667 22.5,39.8333 22.5,38.5C 22.5,37.5 22.5,36.5 22.5,35.5 Z"/></g>
<g><path style="opacity:1" fill="#b9b9bb" d="M 43.5,37.5 C 45.1993,37.5271 46.5326,38.1938 47.5,39.5C 47.8333,39.5 48.1667,39.5 48.5,39.5C 48.5,39.8333 48.5,40.1667 48.5,40.5C 47.209,40.2627 46.209,40.596 45.5,41.5C 44.0937,41.0269 43.427,40.0269 43.5,38.5C 43.5,38.1667 43.5,37.8333 43.5,37.5 Z"/></g>
<g><path style="opacity:1" fill="#807f83" d="M 81.5,37.5 C 82.4916,37.3284 83.1583,37.6618 83.5,38.5C 84.5025,40.0109 85.1692,41.6776 85.5,43.5C 84.8333,43.5 84.5,43.8333 84.5,44.5C 83.7611,44.631 83.0944,44.4643 82.5,44C 83.8398,41.8215 83.5065,41.3215 81.5,42.5C 81.6716,41.5084 81.3382,40.8417 80.5,40.5C 80.8333,39.8333 81.1667,39.1667 81.5,38.5C 81.5,38.1667 81.5,37.8333 81.5,37.5 Z"/></g>
<g><path style="opacity:0.061" fill="#171717" d="M 13.5,39.5 C 13.5,40.5 13.5,41.5 13.5,42.5C 11.901,42.7678 10.5676,42.4345 9.5,41.5C 11.0618,41.2671 12.3951,40.6005 13.5,39.5 Z"/></g>
<g><path style="opacity:1" fill="#acacae" d="M 50.5,37.5 C 50.1667,38.8333 49.8333,40.1667 49.5,41.5C 49.6716,42.4916 49.3382,43.1583 48.5,43.5C 48.5,42.5 48.5,41.5 48.5,40.5C 48.5,40.1667 48.5,39.8333 48.5,39.5C 48.8333,38.5 49.5,37.8333 50.5,37.5 Z"/></g>
<g><path style="opacity:1" fill="#545358" d="M 53.5,39.5 C 54.5,39.5 55.5,39.5 56.5,39.5C 56.5,40.5 56.5,41.5 56.5,42.5C 55.8333,42.5 55.1667,42.5 54.5,42.5C 54.5,41.8333 54.1667,41.5 53.5,41.5C 53.5,40.8333 53.5,40.1667 53.5,39.5 Z"/></g>
<g><path style="opacity:0.878" fill="#424242" d="M 66.5,36.5 C 66.8333,36.5 67.1667,36.5 67.5,36.5C 67.5,36.8333 67.5,37.1667 67.5,37.5C 68.2107,39.8418 69.544,40.1751 71.5,38.5C 71.5,39.1667 71.5,39.8333 71.5,40.5C 71.1667,40.5 70.8333,40.5 70.5,40.5C 69.8333,40.5 69.1667,40.5 68.5,40.5C 66.8958,41.287 66.2291,42.6203 66.5,44.5C 65.2801,42.9504 65.2801,41.2837 66.5,39.5C 66.5,38.5 66.5,37.5 66.5,36.5 Z"/></g>
<g><path style="opacity:0.471" fill="#29282b" d="M 78.5,38.5 C 79.5,38.5 80.5,38.5 81.5,38.5C 81.1667,39.1667 80.8333,39.8333 80.5,40.5C 79.6618,40.8417 79.3284,41.5084 79.5,42.5C 78.609,43.1098 77.609,43.4431 76.5,43.5C 76.5,42.8333 76.1667,42.5 75.5,42.5C 75.0882,40.0274 76.0882,38.6941 78.5,38.5 Z"/></g>
<g><path style="opacity:1" fill="#818183" d="M 21.5,38.5 C 21.8333,38.5 22.1667,38.5 22.5,38.5C 22.5,39.8333 22.5,41.1667 22.5,42.5C 22.5,42.8333 22.5,43.1667 22.5,43.5C 21.8333,43.5 21.5,43.8333 21.5,44.5C 21.5,45.1667 21.5,45.8333 21.5,46.5C 20.391,46.4431 19.391,46.1098 18.5,45.5C 18.5,45.1667 18.5,44.8333 18.5,44.5C 20.4812,43.8946 20.8146,42.8946 19.5,41.5C 21.0481,41.1788 21.7148,40.1788 21.5,38.5 Z"/></g>
<g><path style="opacity:0.192" fill="#242426" d="M 42.5,36.5 C 42.5,37.1667 42.5,37.8333 42.5,38.5C 42.595,40.7857 43.2616,42.7857 44.5,44.5C 44.5,45.1667 44.5,45.8333 44.5,46.5C 43.5,45.8333 42.5,45.1667 41.5,44.5C 41.1936,41.6146 41.5269,38.9479 42.5,36.5 Z"/></g>
<g><path style="opacity:1" fill="#7d7d7f" d="M 42.5,38.5 C 42.8333,38.5 43.1667,38.5 43.5,38.5C 43.427,40.0269 44.0937,41.0269 45.5,41.5C 45.6107,42.1174 45.944,42.6174 46.5,43C 45.5842,43.2784 44.9175,43.7784 44.5,44.5C 43.2616,42.7857 42.595,40.7857 42.5,38.5 Z"/></g>
<g><path style="opacity:0.4" fill="#424242" d="M 68.5,40.5 C 69.1667,40.5 69.8333,40.5 70.5,40.5C 69.8902,41.391 69.5569,42.391 69.5,43.5C 69.2053,45.7354 69.5386,47.7354 70.5,49.5C 70.5,49.8333 70.5,50.1667 70.5,50.5C 69.8333,50.5 69.1667,50.5 68.5,50.5C 68.5,47.1667 68.5,43.8333 68.5,40.5 Z"/></g>
<g><path style="opacity:1" fill="#9b9a9f" d="M 80.5,40.5 C 81.3382,40.8417 81.6716,41.5084 81.5,42.5C 81.5,42.8333 81.5,43.1667 81.5,43.5C 80.8333,43.8333 80.1667,44.1667 79.5,44.5C 79.5,43.8333 79.5,43.1667 79.5,42.5C 79.3284,41.5084 79.6618,40.8417 80.5,40.5 Z"/></g>
<g><path style="opacity:0.576" fill="#313132" d="M 13.5,39.5 C 13.8333,39.5 14.1667,39.5 14.5,39.5C 14.281,40.675 14.6143,41.675 15.5,42.5C 16.1067,42.3764 16.44,42.0431 16.5,41.5C 17.1667,40.8333 17.8333,40.1667 18.5,39.5C 18.5674,40.9587 18.2341,42.2921 17.5,43.5C 17.1667,43.5 16.8333,43.5 16.5,43.5C 15.209,43.7373 14.209,43.404 13.5,42.5C 13.5,41.5 13.5,40.5 13.5,39.5 Z"/></g>
<g><path style="opacity:1" fill="#b0b0b0" d="M 14.5,39.5 C 15.8333,39.5 16.5,40.1667 16.5,41.5C 16.44,42.0431 16.1067,42.3764 15.5,42.5C 14.6143,41.675 14.281,40.675 14.5,39.5 Z"/></g>
<g><path style="opacity:1" fill="#404042" d="M 18.5,39.5 C 19.3382,39.8417 19.6716,40.5084 19.5,41.5C 20.8146,42.8946 20.4812,43.8946 18.5,44.5C 18.5,43.8333 18.1667,43.5 17.5,43.5C 18.2341,42.2921 18.5674,40.9587 18.5,39.5 Z"/></g>
<g><path style="opacity:1" fill="#c2c2c4" d="M 48.5,40.5 C 48.5,41.5 48.5,42.5 48.5,43.5C 48.5,43.8333 48.5,44.1667 48.5,44.5C 47.391,44.5569 46.391,44.8902 45.5,45.5C 45.5,44.8333 45.1667,44.5 44.5,44.5C 44.9175,43.7784 45.5842,43.2784 46.5,43C 45.944,42.6174 45.6107,42.1174 45.5,41.5C 46.209,40.596 47.209,40.2627 48.5,40.5 Z"/></g>
<g><path style="opacity:1" fill="#838387" d="M 53.5,41.5 C 54.1667,41.5 54.5,41.8333 54.5,42.5C 54.5,43.1667 54.5,43.8333 54.5,44.5C 53.8333,44.5 53.5,44.8333 53.5,45.5C 52.5084,45.6716 51.8417,45.3382 51.5,44.5C 52.4013,43.7095 53.0679,42.7095 53.5,41.5 Z"/></g>
<g><path style="opacity:1" fill="#222224" d="M 57.5,39.5 C 58.8668,41.7896 58.2002,43.4563 55.5,44.5C 55.1667,44.5 54.8333,44.5 54.5,44.5C 54.5,43.8333 54.5,43.1667 54.5,42.5C 55.1667,42.5 55.8333,42.5 56.5,42.5C 57.404,41.791 57.7373,40.791 57.5,39.5 Z"/></g>
<g><path style="opacity:1" fill="#77767a" d="M 84.5,44.5 C 84.5,44.8333 84.5,45.1667 84.5,45.5C 82.9731,45.427 81.9731,46.0937 81.5,47.5C 80.8333,47.5 80.1667,47.5 79.5,47.5C 80.6005,46.3951 81.2671,45.0618 81.5,43.5C 81.5,43.1667 81.5,42.8333 81.5,42.5C 83.5065,41.3215 83.8398,41.8215 82.5,44C 83.0944,44.4643 83.7611,44.631 84.5,44.5 Z"/></g>
<g><path style="opacity:1" fill="#656467" d="M 49.5,41.5 C 50.8333,41.5 52.1667,41.5 53.5,41.5C 53.0679,42.7095 52.4013,43.7095 51.5,44.5C 51.631,43.7611 51.4643,43.0944 51,42.5C 49.9914,44.0249 49.4914,45.6916 49.5,47.5C 49.1667,47.5 48.8333,47.5 48.5,47.5C 48.5,46.5 48.5,45.5 48.5,44.5C 48.5,44.1667 48.5,43.8333 48.5,43.5C 49.3382,43.1583 49.6716,42.4916 49.5,41.5 Z"/></g>
<g><path style="opacity:1" fill="#979799" d="M 21.5,44.5 C 23.5,44.5 24.5,45.5 24.5,47.5C 23.8333,47.8333 23.1667,48.1667 22.5,48.5C 22.1667,47.8333 21.8333,47.1667 21.5,46.5C 21.5,45.8333 21.5,45.1667 21.5,44.5 Z"/></g>
<g><path style="opacity:0.347" fill="#161616" d="M 41.5,44.5 C 41.5,45.1667 41.5,45.8333 41.5,46.5C 40.609,47.1098 39.609,47.4431 38.5,47.5C 39.5981,46.603 39.5981,45.7697 38.5,45C 39.3523,43.2716 40.3523,43.105 41.5,44.5 Z"/></g>
<g><path style="opacity:1" fill="#8c8c8e" d="M 48.5,44.5 C 48.5,45.5 48.5,46.5 48.5,47.5C 46.9731,47.573 45.9731,46.9063 45.5,45.5C 46.391,44.8902 47.391,44.5569 48.5,44.5 Z"/></g>
<g><path style="opacity:0.941" fill="#737373" d="M 68.5,40.5 C 68.5,43.8333 68.5,47.1667 68.5,50.5C 68.1667,51.5 67.5,52.1667 66.5,52.5C 66.5,51.1667 66.5,49.8333 66.5,48.5C 66.5,47.1667 66.5,45.8333 66.5,44.5C 66.2291,42.6203 66.8958,41.287 68.5,40.5 Z"/></g>
<g><path style="opacity:0.51" fill="#242326" d="M 75.5,42.5 C 76.1667,42.5 76.5,42.8333 76.5,43.5C 76.1667,44.5 75.5,45.1667 74.5,45.5C 73.8333,45.5 73.1667,45.5 72.5,45.5C 72.8564,43.8102 73.8564,42.8102 75.5,42.5 Z"/></g>
<g><path style="opacity:0.22" fill="#28282a" d="M 85.5,43.5 C 85.8333,43.5 86.1667,43.5 86.5,43.5C 86.7709,45.3797 86.1042,46.713 84.5,47.5C 84.5,46.8333 84.5,46.1667 84.5,45.5C 84.5,45.1667 84.5,44.8333 84.5,44.5C 84.5,43.8333 84.8333,43.5 85.5,43.5 Z"/></g>
<g><path style="opacity:1" fill="#ccccce" d="M 28.5,42.5 C 29.1667,42.5 29.5,42.8333 29.5,43.5C 29.5,45.1667 29.5,46.8333 29.5,48.5C 28.8333,48.5 28.5,48.8333 28.5,49.5C 26.2646,49.7947 24.2646,49.4614 22.5,48.5C 23.1667,48.1667 23.8333,47.8333 24.5,47.5C 24.5,48.1667 24.8333,48.5 25.5,48.5C 27.2231,47.3947 28.2231,45.7281 28.5,43.5C 28.5,43.1667 28.5,42.8333 28.5,42.5 Z"/></g>
<g><path style="opacity:1" fill="#86858a" d="M 79.5,42.5 C 79.5,43.1667 79.5,43.8333 79.5,44.5C 79.1667,45.5 78.5,46.1667 77.5,46.5C 77.1667,46.5 76.8333,46.5 76.5,46.5C 75.8333,46.5 75.1667,46.5 74.5,46.5C 74.5,46.1667 74.5,45.8333 74.5,45.5C 75.5,45.1667 76.1667,44.5 76.5,43.5C 77.609,43.4431 78.609,43.1098 79.5,42.5 Z"/></g>
<g><path style="opacity:1" fill="#49484c" d="M 81.5,43.5 C 81.2671,45.0618 80.6005,46.3951 79.5,47.5C 78.5084,47.6716 77.8417,47.3382 77.5,46.5C 78.5,46.1667 79.1667,45.5 79.5,44.5C 80.1667,44.1667 80.8333,43.8333 81.5,43.5 Z"/></g>
<g><path style="opacity:0.28" fill="#1f1f21" d="M 16.5,43.5 C 16.8333,43.5 17.1667,43.5 17.5,43.5C 18.1667,43.5 18.5,43.8333 18.5,44.5C 18.5,44.8333 18.5,45.1667 18.5,45.5C 17.8333,45.5 17.5,45.8333 17.5,46.5C 16.6618,46.8417 16.3284,47.5084 16.5,48.5C 15.506,47.0011 15.506,45.3344 16.5,43.5 Z"/></g>
<g><path style="opacity:1" fill="#d2d2d3" d="M 18.5,45.5 C 19.391,46.1098 20.391,46.4431 21.5,46.5C 21.8333,47.1667 22.1667,47.8333 22.5,48.5C 21.8333,48.5 21.1667,48.5 20.5,48.5C 19.0937,48.0269 18.427,47.0269 18.5,45.5 Z"/></g>
<g><path style="opacity:1" fill="#b7b7b9" d="M 21.5,44.5 C 21.5,43.8333 21.8333,43.5 22.5,43.5C 23.8333,43.5 25.1667,43.5 26.5,43.5C 25.962,45.1172 25.6287,46.7839 25.5,48.5C 24.8333,48.5 24.5,48.1667 24.5,47.5C 24.5,45.5 23.5,44.5 21.5,44.5 Z"/></g>
<g><path style="opacity:1" fill="#636364" d="M 26.5,43.5 C 27.1667,43.5 27.8333,43.5 28.5,43.5C 28.2231,45.7281 27.2231,47.3947 25.5,48.5C 25.6287,46.7839 25.962,45.1172 26.5,43.5 Z"/></g>
<g><path style="opacity:0.231" fill="#303032" d="M 69.5,43.5 C 70.3019,44.9516 70.8019,46.6183 71,48.5C 71.2321,47.2625 71.7321,46.2625 72.5,45.5C 73.1667,45.5 73.8333,45.5 74.5,45.5C 74.5,45.8333 74.5,46.1667 74.5,46.5C 73.8333,46.5 73.5,46.8333 73.5,47.5C 72.7777,48.5511 71.7777,49.2178 70.5,49.5C 69.5386,47.7354 69.2053,45.7354 69.5,43.5 Z"/></g>
<g><path style="opacity:0.501" fill="#171719" d="M 41.5,46.5 C 42.3382,46.8417 42.6716,47.5084 42.5,48.5C 42.1667,48.5 41.8333,48.5 41.5,48.5C 40.6618,48.8417 40.3284,49.5084 40.5,50.5C 40.1667,50.5 39.8333,50.5 39.5,50.5C 39.5,49.1667 38.8333,48.5 37.5,48.5C 37.5,47.8333 37.8333,47.5 38.5,47.5C 39.609,47.4431 40.609,47.1098 41.5,46.5 Z"/></g>
<g><path style="opacity:0.671" fill="#2f2f32" d="M 44.5,44.5 C 45.1667,44.5 45.5,44.8333 45.5,45.5C 45.9731,46.9063 46.9731,47.573 48.5,47.5C 48.8333,47.5 49.1667,47.5 49.5,47.5C 49.81,50.7131 49.4767,53.7131 48.5,56.5C 48.5,55.5 48.5,54.5 48.5,53.5C 48.5,53.1667 48.5,52.8333 48.5,52.5C 48.5,51.1667 48.5,49.8333 48.5,48.5C 46.6203,48.7709 45.287,48.1042 44.5,46.5C 44.5,45.8333 44.5,45.1667 44.5,44.5 Z"/></g>
<g><path style="opacity:1" fill="#4d4d4f" d="M 51.5,44.5 C 51.8417,45.3382 52.5084,45.6716 53.5,45.5C 51.2733,47.2287 50.2733,49.562 50.5,52.5C 50.5,54.1667 50.5,55.8333 50.5,57.5C 49.5269,59.9479 49.1936,62.6146 49.5,65.5C 49.1667,65.5 48.8333,65.5 48.5,65.5C 48.5,62.5 48.5,59.5 48.5,56.5C 49.4767,53.7131 49.81,50.7131 49.5,47.5C 49.4914,45.6916 49.9914,44.0249 51,42.5C 51.4643,43.0944 51.631,43.7611 51.5,44.5 Z"/></g>
<g><path style="opacity:0.11" fill="#232326" d="M 54.5,44.5 C 54.8333,44.5 55.1667,44.5 55.5,44.5C 54.5849,46.7541 53.2516,48.7541 51.5,50.5C 51.5,51.1667 51.5,51.8333 51.5,52.5C 51.1667,52.5 50.8333,52.5 50.5,52.5C 50.2733,49.562 51.2733,47.2287 53.5,45.5C 53.5,44.8333 53.8333,44.5 54.5,44.5 Z"/></g>
<g><path style="opacity:1" fill="#7c7c7c" d="M 76.5,46.5 C 76.8333,46.5 77.1667,46.5 77.5,46.5C 77.8417,47.3382 78.5084,47.6716 79.5,47.5C 80.1667,47.5 80.8333,47.5 81.5,47.5C 81.1667,48.5 80.5,49.1667 79.5,49.5C 78.0998,48.8999 77.0998,47.8999 76.5,46.5 Z"/></g>
<g><path style="opacity:0.2" fill="#323234" d="M 84.5,45.5 C 84.5,46.1667 84.5,46.8333 84.5,47.5C 83.078,48.925 81.4113,49.925 79.5,50.5C 79.5,50.1667 79.5,49.8333 79.5,49.5C 80.5,49.1667 81.1667,48.5 81.5,47.5C 81.9731,46.0937 82.9731,45.427 84.5,45.5 Z"/></g>
<g><path style="opacity:0.506" fill="#363637" d="M 17.5,46.5 C 17.7329,48.0618 18.3995,49.3951 19.5,50.5C 19.7373,51.791 19.404,52.791 18.5,53.5C 18.5,52.8333 18.5,52.1667 18.5,51.5C 17.8333,50.5 17.1667,49.5 16.5,48.5C 16.3284,47.5084 16.6618,46.8417 17.5,46.5 Z"/></g>
<g><path style="opacity:0.092" fill="#171719" d="M 41.5,48.5 C 41.5,49.8333 41.5,51.1667 41.5,52.5C 40.5,52.5 39.5,52.5 38.5,52.5C 38.3284,51.5084 38.6618,50.8417 39.5,50.5C 39.8333,51.8333 40.1667,51.8333 40.5,50.5C 40.3284,49.5084 40.6618,48.8417 41.5,48.5 Z"/></g>
<g><path style="opacity:1" fill="#b3b3b4" d="M 74.5,46.5 C 75.1667,46.5 75.8333,46.5 76.5,46.5C 77.0998,47.8999 78.0998,48.8999 79.5,49.5C 78.5,49.5 77.5,49.5 76.5,49.5C 74.8212,49.7148 73.8212,49.0481 73.5,47.5C 73.5,46.8333 73.8333,46.5 74.5,46.5 Z"/></g>
<g><path style="opacity:0.865" fill="#262626" d="M 14.5,49.5 C 13.8333,49.5 13.5,49.8333 13.5,50.5C 14.1667,52.1667 14.8333,53.8333 15.5,55.5C 14.1667,54.8333 13.1667,53.8333 12.5,52.5C 11.3774,51.2426 10.7107,51.5759 10.5,53.5C 9.56552,52.4324 9.23219,51.099 9.5,49.5C 11.3904,49.7035 12.8904,49.0368 14,47.5C 14.4643,48.0944 14.631,48.7611 14.5,49.5 Z"/></g>
<g><path style="opacity:1" fill="#6a6a6b" d="M 18.5,45.5 C 18.427,47.0269 19.0937,48.0269 20.5,48.5C 20.8333,49.1667 21.1667,49.8333 21.5,50.5C 20.8333,50.5 20.1667,50.5 19.5,50.5C 18.3995,49.3951 17.7329,48.0618 17.5,46.5C 17.5,45.8333 17.8333,45.5 18.5,45.5 Z"/></g>
<g><path style="opacity:1" fill="#7c7c7c" d="M 20.5,48.5 C 21.1667,48.5 21.8333,48.5 22.5,48.5C 24.2646,49.4614 26.2646,49.7947 28.5,49.5C 28.5,49.8333 28.5,50.1667 28.5,50.5C 26.8333,50.5 25.1667,50.5 23.5,50.5C 23.7373,51.791 23.404,52.791 22.5,53.5C 22.7373,52.209 22.404,51.209 21.5,50.5C 21.1667,49.8333 20.8333,49.1667 20.5,48.5 Z"/></g>
<g><path style="opacity:0.439" fill="#3f3f3f" d="M 29.5,43.5 C 29.8333,43.5 30.1667,43.5 30.5,43.5C 30.5,44.1667 30.5,44.8333 30.5,45.5C 30.3746,48.6082 31.7079,50.6082 34.5,51.5C 34.7373,52.791 34.404,53.791 33.5,54.5C 33.1667,53.5 32.5,52.8333 31.5,52.5C 31.5,51.8333 31.1667,51.5 30.5,51.5C 30.4431,50.391 30.1098,49.391 29.5,48.5C 29.5,46.8333 29.5,45.1667 29.5,43.5 Z"/></g>
<g><path style="opacity:0.675" fill="#2a2a2c" d="M 37.5,48.5 C 38.8333,48.5 39.5,49.1667 39.5,50.5C 38.6618,50.8417 38.3284,51.5084 38.5,52.5C 37.8333,52.5 37.5,52.8333 37.5,53.5C 36.5655,52.4324 36.2322,51.099 36.5,49.5C 36.5,48.8333 36.8333,48.5 37.5,48.5 Z"/></g>
<g><path style="opacity:1" fill="#9d9d9f" d="M 73.5,47.5 C 73.8212,49.0481 74.8212,49.7148 76.5,49.5C 76.5,49.8333 76.5,50.1667 76.5,50.5C 74.5,50.5 72.5,50.5 70.5,50.5C 70.5,50.1667 70.5,49.8333 70.5,49.5C 71.7777,49.2178 72.7777,48.5511 73.5,47.5 Z"/></g>
<g><path style="opacity:0.753" fill="#444445" d="M 28.5,50.5 C 29.2341,51.7079 29.5674,53.0413 29.5,54.5C 29.6716,55.4916 29.3382,56.1583 28.5,56.5C 28.7678,54.901 28.4345,53.5676 27.5,52.5C 26.5041,52.5858 25.6708,52.2524 25,51.5C 24.5357,52.0944 24.369,52.7611 24.5,53.5C 24.5,54.5 24.5,55.5 24.5,56.5C 24.8417,57.3382 25.5084,57.6716 26.5,57.5C 26.5,57.8333 26.5,58.1667 26.5,58.5C 25.8333,58.5 25.1667,58.5 24.5,58.5C 23.8333,58.1667 23.1667,57.8333 22.5,57.5C 23.8333,56.1667 23.8333,54.8333 22.5,53.5C 23.404,52.791 23.7373,51.791 23.5,50.5C 25.1667,50.5 26.8333,50.5 28.5,50.5 Z M 27.5,52.5 C 27.1959,54.7957 26.1959,55.129 24.5,53.5C 24.369,52.7611 24.5357,52.0944 25,51.5C 25.6708,52.2524 26.5041,52.5858 27.5,52.5 Z"/></g>
<g><path style="opacity:1" fill="#d4d4d4" d="M 29.5,48.5 C 30.1098,49.391 30.4431,50.391 30.5,51.5C 30.7373,52.791 30.404,53.791 29.5,54.5C 29.5674,53.0413 29.2341,51.7079 28.5,50.5C 28.5,50.1667 28.5,49.8333 28.5,49.5C 28.5,48.8333 28.8333,48.5 29.5,48.5 Z"/></g>
<g><path style="opacity:0.54" fill="#212122" d="M 36.5,49.5 C 36.2322,51.099 36.5655,52.4324 37.5,53.5C 37.5,54.8333 37.5,56.1667 37.5,57.5C 36.1805,56.0582 34.5138,55.3915 32.5,55.5C 32.5,54.8333 32.8333,54.5 33.5,54.5C 34.404,53.791 34.7373,52.791 34.5,51.5C 35.1667,50.8333 35.8333,50.1667 36.5,49.5 Z"/></g>
<g><path style="opacity:0.969" fill="#202021" d="M 55.5,54.5 C 54.448,54.6495 53.448,54.4828 52.5,54C 53.6843,52.8545 53.6843,51.6879 52.5,50.5C 53.8804,49.2935 55.0471,49.6269 56,51.5C 56.7401,52.7494 56.5735,53.7494 55.5,54.5 Z"/></g>
<g><path style="opacity:0.349" fill="#232323" d="M 48.5,52.5 C 48.5,52.8333 48.5,53.1667 48.5,53.5C 47.0387,54.6857 45.7054,54.6857 44.5,53.5C 44.5,53.1667 44.5,52.8333 44.5,52.5C 45.7054,51.3143 47.0387,51.3143 48.5,52.5 Z"/></g>
<g><path style="opacity:0.757" fill="#161618" d="M 51.5,50.5 C 51.8333,50.5 52.1667,50.5 52.5,50.5C 53.6843,51.6879 53.6843,52.8545 52.5,54C 53.448,54.4828 54.448,54.6495 55.5,54.5C 54.4324,55.4345 53.099,55.7678 51.5,55.5C 51.5,54.5 51.5,53.5 51.5,52.5C 51.5,51.8333 51.5,51.1667 51.5,50.5 Z"/></g>
<g><path style="opacity:1" fill="#9c9c9e" d="M 77.5,51.5 C 76.713,53.1042 75.3797,53.7709 73.5,53.5C 73.1667,53.5 72.8333,53.5 72.5,53.5C 72.0825,52.7784 71.4158,52.2784 70.5,52C 72.8098,51.5034 75.1432,51.3367 77.5,51.5 Z"/></g>
<g><path style="opacity:0.251" fill="#2f2f31" d="M 13.5,50.5 C 13.5,49.8333 13.8333,49.5 14.5,49.5C 15.6049,50.6005 16.9382,51.2671 18.5,51.5C 18.5,52.1667 18.5,52.8333 18.5,53.5C 18.5,53.8333 18.5,54.1667 18.5,54.5C 16.8333,53.1667 15.1667,51.8333 13.5,50.5 Z"/></g>
<g><path style="opacity:1" fill="#424244" d="M 38.5,52.5 C 38.3284,53.4916 38.6618,54.1583 39.5,54.5C 39.5,55.1667 39.8333,55.5 40.5,55.5C 40.5,56.1667 40.5,56.8333 40.5,57.5C 40.5,58.8333 40.5,60.1667 40.5,61.5C 39.8333,60.5 39.1667,59.5 38.5,58.5C 37.8333,58.5 37.5,58.1667 37.5,57.5C 37.5,56.1667 37.5,54.8333 37.5,53.5C 37.5,52.8333 37.8333,52.5 38.5,52.5 Z"/></g>
<g><path style="opacity:1" fill="#afafb1" d="M 19.5,50.5 C 20.1667,50.5 20.8333,50.5 21.5,50.5C 22.404,51.209 22.7373,52.209 22.5,53.5C 23.8333,54.8333 23.8333,56.1667 22.5,57.5C 21.8333,57.5 21.5,57.8333 21.5,58.5C 20.8333,58.5 20.5,58.8333 20.5,59.5C 20.1667,59.5 19.8333,59.5 19.5,59.5C 19.5106,57.9826 20.1772,56.8159 21.5,56C 20.4232,55.5304 19.4232,55.6971 18.5,56.5C 18.5,55.8333 18.5,55.1667 18.5,54.5C 18.5,54.1667 18.5,53.8333 18.5,53.5C 19.404,52.791 19.7373,51.791 19.5,50.5 Z"/></g>
<g><path style="opacity:0.765" fill="#393939" d="M 31.5,52.5 C 32.5,52.8333 33.1667,53.5 33.5,54.5C 32.8333,54.5 32.5,54.8333 32.5,55.5C 30.2287,60.5819 31.8953,63.5819 37.5,64.5C 37.5,65.1667 37.8333,65.5 38.5,65.5C 38.5,65.8333 38.5,66.1667 38.5,66.5C 38.1667,66.5 37.8333,66.5 37.5,66.5C 36.609,65.8902 35.609,65.5569 34.5,65.5C 33.1667,64.1667 31.8333,62.8333 30.5,61.5C 30.5,60.5 30.5,59.5 30.5,58.5C 30.8333,56.5 31.1667,54.5 31.5,52.5 Z"/></g>
<g><path style="opacity:0.631" fill="#1a1a1c" d="M 41.5,48.5 C 41.8333,48.5 42.1667,48.5 42.5,48.5C 42.6596,50.153 43.3263,51.4863 44.5,52.5C 44.5,52.8333 44.5,53.1667 44.5,53.5C 43.8333,54.8333 43.1667,56.1667 42.5,57.5C 42.0623,56.4937 41.3957,56.4937 40.5,57.5C 40.5,56.8333 40.5,56.1667 40.5,55.5C 41.7424,53.654 41.409,53.3207 39.5,54.5C 38.6618,54.1583 38.3284,53.4916 38.5,52.5C 39.5,52.5 40.5,52.5 41.5,52.5C 41.5,51.1667 41.5,49.8333 41.5,48.5 Z"/></g>
<g><path style="opacity:1" fill="#323234" d="M 66.5,48.5 C 66.5,49.8333 66.5,51.1667 66.5,52.5C 66.5,52.8333 66.5,53.1667 66.5,53.5C 67.8333,54.5 67.8333,55.5 66.5,56.5C 65.6618,56.1583 65.3284,55.4916 65.5,54.5C 65.5,53.8333 65.5,53.1667 65.5,52.5C 65.2322,50.901 65.5655,49.5676 66.5,48.5 Z"/></g>
<g><path style="opacity:1" fill="#c3c2c5" d="M 68.5,50.5 C 69.1667,50.5 69.8333,50.5 70.5,50.5C 72.5,50.5 74.5,50.5 76.5,50.5C 77.1667,50.5 77.5,50.8333 77.5,51.5C 75.1432,51.3367 72.8098,51.5034 70.5,52C 71.4158,52.2784 72.0825,52.7784 72.5,53.5C 70.5,54.8333 68.5,54.8333 66.5,53.5C 66.5,53.1667 66.5,52.8333 66.5,52.5C 67.5,52.1667 68.1667,51.5 68.5,50.5 Z"/></g>
<g><path style="opacity:1" fill="#59595b" d="M 76.5,50.5 C 76.5,50.1667 76.5,49.8333 76.5,49.5C 77.5,49.5 78.5,49.5 79.5,49.5C 79.5,49.8333 79.5,50.1667 79.5,50.5C 78.6554,51.6715 77.9887,53.0048 77.5,54.5C 77.1667,54.5 76.8333,54.5 76.5,54.5C 75.5084,54.3284 74.8417,54.6618 74.5,55.5C 73.6618,55.1583 73.3284,54.4916 73.5,53.5C 75.3797,53.7709 76.713,53.1042 77.5,51.5C 77.5,50.8333 77.1667,50.5 76.5,50.5 Z"/></g>
<g><path style="opacity:0.031" fill="#1c1c1d" d="M 79.5,50.5 C 79.2627,51.791 79.596,52.791 80.5,53.5C 80.5,53.8333 80.5,54.1667 80.5,54.5C 79.6618,54.8417 79.3284,55.5084 79.5,56.5C 78.8333,55.8333 78.1667,55.1667 77.5,54.5C 77.9887,53.0048 78.6554,51.6715 79.5,50.5 Z"/></g>
<g><path style="opacity:0.184" fill="#272727" d="M 80.5,54.5 C 80.5,54.1667 80.5,53.8333 80.5,53.5C 83.3965,53.1253 86.0632,53.6253 88.5,55C 87.9152,56.3024 87.2485,57.469 86.5,58.5C 86.7678,56.901 86.4345,55.5676 85.5,54.5C 84.7784,54.9175 84.2784,55.5842 84,56.5C 83.1841,55.1772 82.0174,54.5106 80.5,54.5 Z"/></g>
<g><path style="opacity:0.58" fill="#363636" d="M 12.5,52.5 C 11.475,52.8966 11.3083,53.5632 12,54.5C 14.068,56.3962 15.9013,58.3962 17.5,60.5C 17.4326,61.9587 17.7659,63.2921 18.5,64.5C 18.8333,65.1667 19.1667,65.8333 19.5,66.5C 19.1667,66.5 18.8333,66.5 18.5,66.5C 16.6019,61.7058 13.9352,57.3724 10.5,53.5C 10.7107,51.5759 11.3774,51.2426 12.5,52.5 Z"/></g>
<g><path style="opacity:1" fill="#8d8c90" d="M 13.5,50.5 C 15.1667,51.8333 16.8333,53.1667 18.5,54.5C 18.5,55.1667 18.5,55.8333 18.5,56.5C 17.609,55.8902 16.609,55.5569 15.5,55.5C 14.8333,53.8333 14.1667,52.1667 13.5,50.5 Z"/></g>
<g><path style="opacity:1" fill="#555555" d="M 28.5,56.5 C 28.5,56.8333 28.5,57.1667 28.5,57.5C 28.6716,58.4916 28.3382,59.1583 27.5,59.5C 27.6716,58.5084 27.3382,57.8417 26.5,57.5C 25.5084,57.6716 24.8417,57.3382 24.5,56.5C 25.8333,55.1667 27.1667,55.1667 28.5,56.5 Z"/></g>
<g><path style="opacity:0.757" fill="#303030" d="M 27.5,52.5 C 28.4345,53.5676 28.7678,54.901 28.5,56.5C 27.1667,55.1667 25.8333,55.1667 24.5,56.5C 24.5,55.5 24.5,54.5 24.5,53.5C 26.1959,55.129 27.1959,54.7957 27.5,52.5 Z"/></g>
<g><path style="opacity:1" fill="#b6b6b5" d="M 30.5,51.5 C 31.1667,51.5 31.5,51.8333 31.5,52.5C 31.1667,54.5 30.8333,56.5 30.5,58.5C 30.1667,58.5 29.8333,58.5 29.5,58.5C 29.5,57.8333 29.1667,57.5 28.5,57.5C 28.5,57.1667 28.5,56.8333 28.5,56.5C 29.3382,56.1583 29.6716,55.4916 29.5,54.5C 30.404,53.791 30.7373,52.791 30.5,51.5 Z"/></g>
<g><path style="opacity:0.761" fill="#212122" d="M 65.5,52.5 C 65.5,53.1667 65.5,53.8333 65.5,54.5C 64.8333,54.5 64.5,54.8333 64.5,55.5C 63.609,56.1098 62.609,56.4431 61.5,56.5C 62.3818,54.9157 63.2152,53.249 64,51.5C 64.3826,52.056 64.8826,52.3893 65.5,52.5 Z"/></g>
<g><path style="opacity:0.612" fill="#171719" d="M 76.5,54.5 C 76.8333,54.5 77.1667,54.5 77.5,54.5C 78.1667,55.1667 78.8333,55.8333 79.5,56.5C 79.5,57.1667 79.5,57.8333 79.5,58.5C 78.8333,58.5 78.1667,58.5 77.5,58.5C 77.5674,57.0413 77.2341,55.7079 76.5,54.5 Z"/></g>
<g><path style="opacity:1" fill="#6e6e6e" d="M 80.5,54.5 C 82.0174,54.5106 83.1841,55.1772 84,56.5C 84.2784,55.5842 84.7784,54.9175 85.5,54.5C 85.7678,56.099 85.4345,57.4324 84.5,58.5C 83.4324,57.5655 82.099,57.2322 80.5,57.5C 80.5,56.5 80.5,55.5 80.5,54.5 Z"/></g>
<g><path style="opacity:0.961" fill="#2f2f2f" d="M 85.5,54.5 C 86.4345,55.5676 86.7678,56.901 86.5,58.5C 85.5,59.8333 84.5,59.8333 83.5,58.5C 83.8333,58.5 84.1667,58.5 84.5,58.5C 85.4345,57.4324 85.7678,56.099 85.5,54.5 Z"/></g>
<g><path style="opacity:1" fill="#6c6c70" d="M 15.5,55.5 C 16.609,55.5569 17.609,55.8902 18.5,56.5C 19.4232,55.6971 20.4232,55.5304 21.5,56C 20.1772,56.8159 19.5106,57.9826 19.5,59.5C 19.1667,59.5 18.8333,59.5 18.5,59.5C 18.1667,59.5 17.8333,59.5 17.5,59.5C 17.2671,57.9382 16.6005,56.6049 15.5,55.5 Z"/></g>
<g><path style="opacity:1" fill="#86858a" d="M 66.5,53.5 C 68.5,54.8333 70.5,54.8333 72.5,53.5C 72.8333,53.5 73.1667,53.5 73.5,53.5C 73.3284,54.4916 73.6618,55.1583 74.5,55.5C 74.0697,56.421 72.7364,56.921 70.5,57C 71.4158,57.2784 72.0825,57.7784 72.5,58.5C 71.0813,59.4511 69.4147,59.7845 67.5,59.5C 67.5,59.1667 67.5,58.8333 67.5,58.5C 67.6716,57.5084 67.3382,56.8417 66.5,56.5C 67.8333,55.5 67.8333,54.5 66.5,53.5 Z"/></g>
<g><path style="opacity:1" fill="#8b8b8d" d="M 12.5,52.5 C 13.1667,53.8333 14.1667,54.8333 15.5,55.5C 16.6005,56.6049 17.2671,57.9382 17.5,59.5C 17.5,59.8333 17.5,60.1667 17.5,60.5C 15.9013,58.3962 14.068,56.3962 12,54.5C 11.3083,53.5632 11.475,52.8966 12.5,52.5 Z"/></g>
<g><path style="opacity:1" fill="#818181" d="M 64.5,57.5 C 64.5,58.1667 64.8333,58.5 65.5,58.5C 65.5,59.1667 65.5,59.8333 65.5,60.5C 64.2502,60.4226 63.4169,59.756 63,58.5C 62.6174,59.056 62.1174,59.3893 61.5,59.5C 61.8212,57.9519 62.8212,57.2852 64.5,57.5 Z"/></g>
<g><path style="opacity:1" fill="#a5a5a7" d="M 65.5,54.5 C 65.3284,55.4916 65.6618,56.1583 66.5,56.5C 67.3382,56.8417 67.6716,57.5084 67.5,58.5C 66.8333,58.5 66.1667,58.5 65.5,58.5C 64.8333,58.5 64.5,58.1667 64.5,57.5C 64.5,56.8333 64.5,56.1667 64.5,55.5C 64.5,54.8333 64.8333,54.5 65.5,54.5 Z"/></g>
<g><path style="opacity:0.529" fill="#2e2e30" d="M 74.5,55.5 C 74.8417,54.6618 75.5084,54.3284 76.5,54.5C 77.2341,55.7079 77.5674,57.0413 77.5,58.5C 76.5386,60.2646 76.2053,62.2646 76.5,64.5C 76.5,65.1667 76.1667,65.5 75.5,65.5C 75.5674,64.0413 75.2341,62.7079 74.5,61.5C 74.7148,59.8212 74.0481,58.8212 72.5,58.5C 72.0825,57.7784 71.4158,57.2784 70.5,57C 72.7364,56.921 74.0697,56.421 74.5,55.5 Z"/></g>
<g><path style="opacity:1" fill="#3a3a3a" d="M 80.5,54.5 C 80.5,55.5 80.5,56.5 80.5,57.5C 82.099,57.2322 83.4324,57.5655 84.5,58.5C 84.1667,58.5 83.8333,58.5 83.5,58.5C 82.0387,59.6857 80.7054,59.6857 79.5,58.5C 79.5,57.8333 79.5,57.1667 79.5,56.5C 79.3284,55.5084 79.6618,54.8417 80.5,54.5 Z"/></g>
<g><path style="opacity:0.8" fill="#212123" d="M 42.5,57.5 C 42.634,59.2915 42.3007,60.9582 41.5,62.5C 40.8333,62.5 40.5,62.1667 40.5,61.5C 40.5,60.1667 40.5,58.8333 40.5,57.5C 41.3957,56.4937 42.0623,56.4937 42.5,57.5 Z"/></g>
<g><path style="opacity:0.4" fill="#282829" d="M 50.5,52.5 C 50.8333,52.5 51.1667,52.5 51.5,52.5C 51.5,53.5 51.5,54.5 51.5,55.5C 52.388,58.0545 52.7214,60.7212 52.5,63.5C 53.8333,63.5 55.1667,63.5 56.5,63.5C 56.5,63.8333 56.5,64.1667 56.5,64.5C 55.1984,65.8069 53.865,65.8069 52.5,64.5C 51.8319,62.0312 51.1653,59.6979 50.5,57.5C 50.5,55.8333 50.5,54.1667 50.5,52.5 Z"/></g>
<g><path style="opacity:1" fill="#88888a" d="M 65.5,58.5 C 66.1667,58.5 66.8333,58.5 67.5,58.5C 67.5,58.8333 67.5,59.1667 67.5,59.5C 67.0618,59.4346 66.7284,59.6012 66.5,60C 67.7375,60.2321 68.7375,60.7321 69.5,61.5C 68.1667,61.5 66.8333,61.5 65.5,61.5C 65.5,61.1667 65.5,60.8333 65.5,60.5C 65.5,59.8333 65.5,59.1667 65.5,58.5 Z"/></g>
<g><path style="opacity:0.075" fill="#414143" d="M 26.5,57.5 C 27.3382,57.8417 27.6716,58.5084 27.5,59.5C 26.3226,61.7843 24.6559,62.1177 22.5,60.5C 22.8417,59.6618 23.5084,59.3284 24.5,59.5C 25.4916,59.6716 26.1583,59.3382 26.5,58.5C 26.5,58.1667 26.5,57.8333 26.5,57.5 Z"/></g>
<g><path style="opacity:1" fill="#afafaf" d="M 65.5,60.5 C 65.5,60.8333 65.5,61.1667 65.5,61.5C 64.8333,61.8333 64.1667,62.1667 63.5,62.5C 62.7321,63.2625 62.2321,64.2625 62,65.5C 61.5357,64.9056 61.369,64.2389 61.5,63.5C 61.5,62.1667 61.5,60.8333 61.5,59.5C 62.1174,59.3893 62.6174,59.056 63,58.5C 63.4169,59.756 64.2502,60.4226 65.5,60.5 Z"/></g>
<g><path style="opacity:1" fill="#a7a7a9" d="M 72.5,58.5 C 74.0481,58.8212 74.7148,59.8212 74.5,61.5C 73.3478,60.375 72.3478,60.375 71.5,61.5C 70.8333,61.5 70.1667,61.5 69.5,61.5C 68.7375,60.7321 67.7375,60.2321 66.5,60C 66.7284,59.6012 67.0618,59.4346 67.5,59.5C 69.4147,59.7845 71.0813,59.4511 72.5,58.5 Z"/></g>
<g><path style="opacity:1" fill="#c1c1c3" d="M 17.5,59.5 C 17.8333,59.5 18.1667,59.5 18.5,59.5C 19.494,61.3344 19.494,63.0011 18.5,64.5C 17.7659,63.2921 17.4326,61.9587 17.5,60.5C 17.5,60.1667 17.5,59.8333 17.5,59.5 Z"/></g>
<g><path style="opacity:0.529" fill="#2f2f32" d="M 22.5,57.5 C 23.1667,57.8333 23.8333,58.1667 24.5,58.5C 24.5,58.8333 24.5,59.1667 24.5,59.5C 23.5084,59.3284 22.8417,59.6618 22.5,60.5C 22.5,60.8333 22.5,61.1667 22.5,61.5C 21.596,60.791 21.2627,59.791 21.5,58.5C 21.5,57.8333 21.8333,57.5 22.5,57.5 Z"/></g>
<g><path style="opacity:1" fill="#424243" d="M 64.5,55.5 C 64.5,56.1667 64.5,56.8333 64.5,57.5C 62.8212,57.2852 61.8212,57.9519 61.5,59.5C 61.5,60.8333 61.5,62.1667 61.5,63.5C 61.1667,63.5 60.8333,63.5 60.5,63.5C 60.5,62.1667 60.5,60.8333 60.5,59.5C 60.2627,58.209 60.596,57.209 61.5,56.5C 62.609,56.4431 63.609,56.1098 64.5,55.5 Z"/></g>
<g><path style="opacity:1" fill="#8b8b8c" d="M 18.5,59.5 C 18.8333,59.5 19.1667,59.5 19.5,59.5C 19.8333,59.5 20.1667,59.5 20.5,59.5C 20.298,61.9496 20.6314,64.283 21.5,66.5C 20.8333,66.5 20.1667,66.5 19.5,66.5C 19.1667,65.8333 18.8333,65.1667 18.5,64.5C 19.494,63.0011 19.494,61.3344 18.5,59.5 Z"/></g>
<g><path style="opacity:1" fill="#c4c4c5" d="M 28.5,57.5 C 29.1667,57.5 29.5,57.8333 29.5,58.5C 28.8784,61.7756 26.8784,63.1089 23.5,62.5C 22.8333,62.5 22.5,62.1667 22.5,61.5C 22.5,61.1667 22.5,60.8333 22.5,60.5C 24.6559,62.1177 26.3226,61.7843 27.5,59.5C 28.3382,59.1583 28.6716,58.4916 28.5,57.5 Z"/></g>
<g><path style="opacity:1" fill="#8a898c" d="M 29.5,58.5 C 29.8333,58.5 30.1667,58.5 30.5,58.5C 30.5,59.5 30.5,60.5 30.5,61.5C 29.8333,62.1667 29.1667,62.8333 28.5,63.5C 27.5,63.8333 26.8333,64.5 26.5,65.5C 26.1667,65.5 25.8333,65.5 25.5,65.5C 25.2178,64.2223 24.5511,63.2223 23.5,62.5C 26.8784,63.1089 28.8784,61.7756 29.5,58.5 Z"/></g>
<g><path style="opacity:0.661" fill="#29292b" d="M 38.5,58.5 C 39.1667,59.5 39.8333,60.5 40.5,61.5C 40.5,62.1667 40.8333,62.5 41.5,62.5C 42.1667,62.5 42.5,62.8333 42.5,63.5C 41.209,63.2627 40.209,63.596 39.5,64.5C 38.8333,64.5 38.5,64.8333 38.5,65.5C 37.8333,65.5 37.5,65.1667 37.5,64.5C 38.3414,62.6208 38.6747,60.6208 38.5,58.5 Z"/></g>
<g><path style="opacity:1" fill="#5b5b5b" d="M 50.5,57.5 C 51.1653,59.6979 51.8319,62.0312 52.5,64.5C 53.865,65.8069 55.1984,65.8069 56.5,64.5C 56.5,65.1667 56.5,65.8333 56.5,66.5C 55.8333,66.5 55.1667,66.5 54.5,66.5C 53.1667,66.5 51.8333,66.5 50.5,66.5C 50.5,63.5 50.5,60.5 50.5,57.5 Z"/></g>
<g><path style="opacity:0.078" fill="#343435" d="M 21.5,58.5 C 21.2627,59.791 21.596,60.791 22.5,61.5C 22.5,62.1667 22.8333,62.5 23.5,62.5C 24.5511,63.2223 25.2178,64.2223 25.5,65.5C 25.1667,65.5 24.8333,65.5 24.5,65.5C 24.1667,64.1667 23.8333,64.1667 23.5,65.5C 23.6107,66.1174 23.944,66.6174 24.5,67C 23.2506,67.7401 22.2506,67.5735 21.5,66.5C 20.6314,64.283 20.298,61.9496 20.5,59.5C 20.5,58.8333 20.8333,58.5 21.5,58.5 Z"/></g>
<g><path style="opacity:0.039" fill="#373737" d="M 65.5,61.5 C 66.8333,61.5 68.1667,61.5 69.5,61.5C 70.1667,61.5 70.8333,61.5 71.5,61.5C 72.1667,61.5 72.5,61.8333 72.5,62.5C 71.5,62.5 70.5,62.5 69.5,62.5C 67.4352,62.5172 65.4352,62.8505 63.5,63.5C 63.5,63.1667 63.5,62.8333 63.5,62.5C 64.1667,62.1667 64.8333,61.8333 65.5,61.5 Z"/></g>
<g><path style="opacity:1" fill="#b1b1b2" d="M 30.5,61.5 C 31.8333,62.8333 33.1667,64.1667 34.5,65.5C 33.2022,64.8843 32.2022,64.8843 31.5,65.5C 30.5084,65.3284 29.8417,65.6618 29.5,66.5C 28.4929,66.5476 28.1596,65.5476 28.5,63.5C 29.1667,62.8333 29.8333,62.1667 30.5,61.5 Z"/></g>
<g><path style="opacity:0.086" fill="#29292b" d="M 42.5,63.5 C 44.3146,64.6298 46.3146,65.2964 48.5,65.5C 48.8333,65.5 49.1667,65.5 49.5,65.5C 49.5,65.8333 49.5,66.1667 49.5,66.5C 47.8333,66.5 46.1667,66.5 44.5,66.5C 43.8333,65.5 43.1667,64.5 42.5,63.5 Z"/></g>
<g><path style="opacity:1" fill="#7b7b7b" d="M 50.5,57.5 C 50.5,60.5 50.5,63.5 50.5,66.5C 51.8333,66.5 53.1667,66.5 54.5,66.5C 53.8166,68.1765 52.4832,68.8432 50.5,68.5C 50.5,67.8333 50.1667,67.5 49.5,67.5C 49.5,67.1667 49.5,66.8333 49.5,66.5C 49.5,66.1667 49.5,65.8333 49.5,65.5C 49.1936,62.6146 49.5269,59.9479 50.5,57.5 Z"/></g>
<g><path style="opacity:0.451" fill="#313133" d="M 60.5,59.5 C 60.5,60.8333 60.5,62.1667 60.5,63.5C 60.6716,64.4916 60.3382,65.1583 59.5,65.5C 58.791,64.596 57.791,64.2627 56.5,64.5C 56.5,64.1667 56.5,63.8333 56.5,63.5C 57.1894,62.2264 58.0228,62.2264 59,63.5C 59.21,61.9419 59.71,60.6085 60.5,59.5 Z"/></g>
<g><path style="opacity:1" fill="#b6b6b7" d="M 71.5,61.5 C 72.3478,60.375 73.3478,60.375 74.5,61.5C 75.2341,62.7079 75.5674,64.0413 75.5,65.5C 74.2719,64.6935 73.2719,63.6935 72.5,62.5C 72.5,61.8333 72.1667,61.5 71.5,61.5 Z"/></g>
<g><path style="opacity:1" fill="#dfdfdf" d="M 28.5,63.5 C 28.1596,65.5476 28.4929,66.5476 29.5,66.5C 30.7574,67.6226 30.4241,68.2893 28.5,68.5C 27.8333,68.1667 27.1667,67.8333 26.5,67.5C 26.5,66.8333 26.5,66.1667 26.5,65.5C 26.8333,64.5 27.5,63.8333 28.5,63.5 Z"/></g>
<g><path style="opacity:1" fill="#a9a8ab" d="M 42.5,63.5 C 43.1667,64.5 43.8333,65.5 44.5,66.5C 44.44,67.0431 44.1067,67.3764 43.5,67.5C 42.4822,66.8075 41.4822,66.1408 40.5,65.5C 39.8333,65.5 39.5,65.1667 39.5,64.5C 40.209,63.596 41.209,63.2627 42.5,63.5 Z"/></g>
<g><path style="opacity:0.276" fill="#2d2d2f" d="M 69.5,62.5 C 70.5,62.5 71.5,62.5 72.5,62.5C 72.5,62.8333 72.5,63.1667 72.5,63.5C 68.8292,64.4917 68.6625,65.8251 72,67.5C 72.7648,67.4301 73.2648,67.0967 73.5,66.5C 74.1667,66.5 74.8333,66.5 75.5,66.5C 74.8333,67.5 74.1667,68.5 73.5,69.5C 72.391,69.4431 71.391,69.1098 70.5,68.5C 70.1667,68.5 69.8333,68.5 69.5,68.5C 69.1436,66.8102 68.1436,65.8102 66.5,65.5C 66.5,65.1667 66.5,64.8333 66.5,64.5C 68.0269,64.573 69.0269,63.9063 69.5,62.5 Z"/></g>
<g><path style="opacity:0.616" fill="#1c1c1d" d="M 75.5,72.5 C 75.5,72.1667 75.5,71.8333 75.5,71.5C 76.1667,71.5 76.5,71.1667 76.5,70.5C 77.9473,69.3778 78.9473,67.8778 79.5,66C 78.1807,65.805 76.8474,65.9717 75.5,66.5C 75.5,66.1667 75.5,65.8333 75.5,65.5C 76.1667,65.5 76.5,65.1667 76.5,64.5C 79.0089,63.1122 80.6755,63.9456 81.5,67C 80.241,69.7272 78.241,71.5606 75.5,72.5 Z"/></g>
<g><path style="opacity:1" fill="#d6d6d5" d="M 29.5,66.5 C 29.8417,65.6618 30.5084,65.3284 31.5,65.5C 31.5,65.8333 31.5,66.1667 31.5,66.5C 31.5569,67.609 31.8902,68.609 32.5,69.5C 31.5,69.8333 30.8333,70.5 30.5,71.5C 29.5987,70.7095 28.9321,69.7095 28.5,68.5C 30.4241,68.2893 30.7574,67.6226 29.5,66.5 Z"/></g>
<g><path style="opacity:1" fill="#a3a3a3" d="M 34.5,65.5 C 35.609,65.5569 36.609,65.8902 37.5,66.5C 37.1583,67.3382 36.4916,67.6716 35.5,67.5C 34.596,68.209 34.2627,69.209 34.5,70.5C 33.9779,68.7809 32.9779,67.4475 31.5,66.5C 31.5,66.1667 31.5,65.8333 31.5,65.5C 32.2022,64.8843 33.2022,64.8843 34.5,65.5 Z"/></g>
<g><path style="opacity:0.506" fill="#262628" d="M 63.5,64.5 C 64.5,65.8333 65.5,65.8333 66.5,64.5C 66.5,64.8333 66.5,65.1667 66.5,65.5C 66.5,66.1667 66.5,66.8333 66.5,67.5C 65.8333,67.5 65.1667,67.5 64.5,67.5C 63.8902,66.609 63.5569,65.609 63.5,64.5 Z"/></g>
<g><path style="opacity:1" fill="#89898b" d="M 72.5,63.5 C 72.5858,64.4959 72.2524,65.3292 71.5,66C 72.0944,66.4643 72.7611,66.631 73.5,66.5C 73.2648,67.0967 72.7648,67.4301 72,67.5C 68.6625,65.8251 68.8292,64.4917 72.5,63.5 Z"/></g>
<g><path style="opacity:1" fill="#59595b" d="M 72.5,62.5 C 73.2719,63.6935 74.2719,64.6935 75.5,65.5C 75.5,65.8333 75.5,66.1667 75.5,66.5C 74.8333,66.5 74.1667,66.5 73.5,66.5C 72.7611,66.631 72.0944,66.4643 71.5,66C 72.2524,65.3292 72.5858,64.4959 72.5,63.5C 72.5,63.1667 72.5,62.8333 72.5,62.5 Z"/></g>
<g><path style="opacity:0.4" fill="#242424" d="M 23.5,65.5 C 23.8333,65.5 24.1667,65.5 24.5,65.5C 24.8333,65.5 25.1667,65.5 25.5,65.5C 25.5,66.5 25.5,67.5 25.5,68.5C 22.7718,68.8294 20.4385,68.1628 18.5,66.5C 18.8333,66.5 19.1667,66.5 19.5,66.5C 20.1667,66.5 20.8333,66.5 21.5,66.5C 22.2506,67.5735 23.2506,67.7401 24.5,67C 23.944,66.6174 23.6107,66.1174 23.5,65.5 Z"/></g>
<g><path style="opacity:1" fill="#a8a8ab" d="M 39.5,64.5 C 39.5,65.1667 39.8333,65.5 40.5,65.5C 40.7329,67.0618 41.3995,68.3951 42.5,69.5C 41.8333,69.5 41.5,69.8333 41.5,70.5C 41.1667,70.5 40.8333,70.5 40.5,70.5C 39.8333,69.1667 39.1667,67.8333 38.5,66.5C 38.5,66.1667 38.5,65.8333 38.5,65.5C 38.5,64.8333 38.8333,64.5 39.5,64.5 Z"/></g>
<g><path style="opacity:1" fill="#dbdbdc" d="M 56.5,64.5 C 57.791,64.2627 58.791,64.596 59.5,65.5C 59.5,65.8333 59.5,66.1667 59.5,66.5C 59.5,66.8333 59.5,67.1667 59.5,67.5C 58.8333,67.5 58.1667,67.5 57.5,67.5C 57.5,66.8333 57.1667,66.5 56.5,66.5C 56.5,65.8333 56.5,65.1667 56.5,64.5 Z"/></g>
<g><path style="opacity:1" fill="#6d6d6f" d="M 63.5,62.5 C 63.5,62.8333 63.5,63.1667 63.5,63.5C 63.5,63.8333 63.5,64.1667 63.5,64.5C 63.5569,65.609 63.8902,66.609 64.5,67.5C 63.1667,67.5 61.8333,67.5 60.5,67.5C 60.5,66.8333 60.1667,66.5 59.5,66.5C 59.5,66.1667 59.5,65.8333 59.5,65.5C 60.3382,65.1583 60.6716,64.4916 60.5,63.5C 60.8333,63.5 61.1667,63.5 61.5,63.5C 61.369,64.2389 61.5357,64.9056 62,65.5C 62.2321,64.2625 62.7321,63.2625 63.5,62.5 Z"/></g>
<g><path style="opacity:1" fill="#c9c9c8" d="M 31.5,66.5 C 32.9779,67.4475 33.9779,68.7809 34.5,70.5C 34.1583,71.3382 33.4916,71.6716 32.5,71.5C 32.5,70.8333 32.5,70.1667 32.5,69.5C 31.8902,68.609 31.5569,67.609 31.5,66.5 Z"/></g>
<g><path style="opacity:1" fill="#7f7f81" d="M 37.5,66.5 C 37.8333,66.5 38.1667,66.5 38.5,66.5C 39.1667,67.8333 39.8333,69.1667 40.5,70.5C 39.8333,70.5 39.1667,70.5 38.5,70.5C 38.5,69.8333 38.1667,69.5 37.5,69.5C 36.8333,69.1667 36.1667,68.8333 35.5,68.5C 35.5,68.1667 35.5,67.8333 35.5,67.5C 36.4916,67.6716 37.1583,67.3382 37.5,66.5 Z"/></g>
<g><path style="opacity:1" fill="#636365" d="M 40.5,65.5 C 41.4822,66.1408 42.4822,66.8075 43.5,67.5C 44.1067,67.3764 44.44,67.0431 44.5,66.5C 46.1667,66.5 47.8333,66.5 49.5,66.5C 49.5,66.8333 49.5,67.1667 49.5,67.5C 49.1667,67.5 48.8333,67.5 48.5,67.5C 46.8333,68.1667 45.1667,68.8333 43.5,69.5C 43.1667,69.5 42.8333,69.5 42.5,69.5C 41.3995,68.3951 40.7329,67.0618 40.5,65.5 Z"/></g>
<g><path style="opacity:1" fill="#d8d8d9" d="M 57.5,67.5 C 58.1667,67.5 58.8333,67.5 59.5,67.5C 59.0334,70.2974 57.3667,71.6308 54.5,71.5C 56.2294,70.7638 57.2294,69.4305 57.5,67.5 Z"/></g>
<g><path style="opacity:1" fill="#c1c1c3" d="M 60.5,67.5 C 61.8333,67.5 63.1667,67.5 64.5,67.5C 65.1667,67.5 65.8333,67.5 66.5,67.5C 66.5,68.5 66.5,69.5 66.5,70.5C 66.6716,71.4916 66.3382,72.1583 65.5,72.5C 65.7148,70.8212 65.0481,69.8212 63.5,69.5C 62.8333,69.5 62.1667,69.5 61.5,69.5C 61.1667,68.8333 60.8333,68.1667 60.5,67.5 Z"/></g>
<g><path style="opacity:1" fill="#535355" d="M 76.5,70.5 C 75.791,69.596 74.791,69.2627 73.5,69.5C 74.1667,68.5 74.8333,67.5 75.5,66.5C 76.8474,65.9717 78.1807,65.805 79.5,66C 78.9473,67.8778 77.9473,69.3778 76.5,70.5 Z"/></g>
<g><path style="opacity:0.251" fill="#2d2d2d" d="M 25.5,65.5 C 25.8333,65.5 26.1667,65.5 26.5,65.5C 26.5,66.1667 26.5,66.8333 26.5,67.5C 27.6047,70.8157 29.2713,73.8157 31.5,76.5C 29.9826,76.4894 28.8159,75.8228 28,74.5C 27.3448,72.3716 26.5114,70.3716 25.5,68.5C 25.5,67.5 25.5,66.5 25.5,65.5 Z"/></g>
<g><path style="opacity:1" fill="#c1c1c3" d="M 54.5,66.5 C 55.1667,66.5 55.8333,66.5 56.5,66.5C 56.5858,67.4959 56.2524,68.3292 55.5,69C 53.8659,69.4935 52.1992,69.6602 50.5,69.5C 50.5,69.1667 50.5,68.8333 50.5,68.5C 52.4832,68.8432 53.8166,68.1765 54.5,66.5 Z"/></g>
<g><path style="opacity:1" fill="#49494b" d="M 66.5,65.5 C 68.1436,65.8102 69.1436,66.8102 69.5,68.5C 68.5,68.8333 67.8333,69.5 67.5,70.5C 67.1667,70.5 66.8333,70.5 66.5,70.5C 66.5,69.5 66.5,68.5 66.5,67.5C 66.5,66.8333 66.5,66.1667 66.5,65.5 Z"/></g>
<g><path style="opacity:1" fill="#c0c0c0" d="M 69.5,68.5 C 69.8333,68.5 70.1667,68.5 70.5,68.5C 70.5,69.1667 70.5,69.8333 70.5,70.5C 69.2502,70.5774 68.4169,71.244 68,72.5C 67.5357,71.9056 67.369,71.2389 67.5,70.5C 67.8333,69.5 68.5,68.8333 69.5,68.5 Z"/></g>
<g><path style="opacity:1" fill="#6c6c6c" d="M 26.5,67.5 C 27.1667,67.8333 27.8333,68.1667 28.5,68.5C 28.9321,69.7095 29.5987,70.7095 30.5,71.5C 30.427,73.0269 31.0937,74.0269 32.5,74.5C 33.9187,75.4511 35.5853,75.7845 37.5,75.5C 37.5,75.8333 37.5,76.1667 37.5,76.5C 35.5,76.5 33.5,76.5 31.5,76.5C 29.2713,73.8157 27.6047,70.8157 26.5,67.5 Z"/></g>
<g><path style="opacity:1" fill="#8f8f91" d="M 48.5,67.5 C 48.2178,68.7777 47.5511,69.7777 46.5,70.5C 45.209,70.7373 44.209,70.404 43.5,69.5C 45.1667,68.8333 46.8333,68.1667 48.5,67.5 Z"/></g>
<g><path style="opacity:1" fill="#e2e2e2" d="M 48.5,67.5 C 48.8333,67.5 49.1667,67.5 49.5,67.5C 50.1667,67.5 50.5,67.8333 50.5,68.5C 50.5,68.8333 50.5,69.1667 50.5,69.5C 49.4324,70.4345 48.099,70.7678 46.5,70.5C 47.5511,69.7777 48.2178,68.7777 48.5,67.5 Z"/></g>
<g><path style="opacity:1" fill="#878787" d="M 56.5,66.5 C 57.1667,66.5 57.5,66.8333 57.5,67.5C 57.2294,69.4305 56.2294,70.7638 54.5,71.5C 51.6146,71.8064 48.9479,71.4731 46.5,70.5C 48.099,70.7678 49.4324,70.4345 50.5,69.5C 52.1992,69.6602 53.8659,69.4935 55.5,69C 56.2524,68.3292 56.5858,67.4959 56.5,66.5 Z"/></g>
<g><path style="opacity:1" fill="#919192" d="M 59.5,66.5 C 60.1667,66.5 60.5,66.8333 60.5,67.5C 60.8333,68.1667 61.1667,68.8333 61.5,69.5C 60.6618,69.8417 60.3284,70.5084 60.5,71.5C 59.4168,71.5394 58.4168,71.8728 57.5,72.5C 56.2267,73.2565 56.2267,73.9232 57.5,74.5C 57.5,74.8333 57.5,75.1667 57.5,75.5C 57.1667,75.5 56.8333,75.5 56.5,75.5C 55.6618,75.1583 55.3284,74.4916 55.5,73.5C 55.5,72.8333 55.1667,72.5 54.5,72.5C 54.5,72.1667 54.5,71.8333 54.5,71.5C 57.3667,71.6308 59.0334,70.2974 59.5,67.5C 59.5,67.1667 59.5,66.8333 59.5,66.5 Z"/></g>
<g><path style="opacity:1" fill="#ebebec" d="M 63.5,69.5 C 65.0481,69.8212 65.7148,70.8212 65.5,72.5C 65.5,72.8333 65.5,73.1667 65.5,73.5C 65.5,74.1667 65.1667,74.5 64.5,74.5C 63.8333,74.5 63.5,74.1667 63.5,73.5C 64.4054,72.0357 64.4054,70.7024 63.5,69.5 Z"/></g>
<g><path style="opacity:1" fill="#606060" d="M 70.5,68.5 C 71.391,69.1098 72.391,69.4431 73.5,69.5C 74.791,69.2627 75.791,69.596 76.5,70.5C 76.5,71.1667 76.1667,71.5 75.5,71.5C 74.1667,71.5 72.8333,71.5 71.5,71.5C 71.5,70.8333 71.1667,70.5 70.5,70.5C 70.5,69.8333 70.5,69.1667 70.5,68.5 Z"/></g>
<g><path style="opacity:1" fill="#c2c2c2" d="M 35.5,68.5 C 36.1667,68.8333 36.8333,69.1667 37.5,69.5C 37.8432,71.4832 37.1765,72.8166 35.5,73.5C 35.5,71.8333 35.5,70.1667 35.5,68.5 Z"/></g>
<g><path style="opacity:1" fill="#b8b8ba" d="M 61.5,69.5 C 62.1667,69.5 62.8333,69.5 63.5,69.5C 64.4054,70.7024 64.4054,72.0357 63.5,73.5C 62.391,73.4431 61.391,73.1098 60.5,72.5C 60.5,72.1667 60.5,71.8333 60.5,71.5C 60.3284,70.5084 60.6618,69.8417 61.5,69.5 Z"/></g>
<g><path style="opacity:1" fill="#dbdbdb" d="M 37.5,69.5 C 38.1667,69.5 38.5,69.8333 38.5,70.5C 38.5,71.8333 38.5,73.1667 38.5,74.5C 38.5,75.1667 38.1667,75.5 37.5,75.5C 35.5853,75.7845 33.9187,75.4511 32.5,74.5C 33.791,74.7373 34.791,74.404 35.5,73.5C 37.1765,72.8166 37.8432,71.4832 37.5,69.5 Z"/></g>
<g><path style="opacity:1" fill="#949495" d="M 38.5,70.5 C 39.1667,70.5 39.8333,70.5 40.5,70.5C 40.8333,70.5 41.1667,70.5 41.5,70.5C 45.6306,72.1831 49.9639,72.8498 54.5,72.5C 55.1667,72.5 55.5,72.8333 55.5,73.5C 54.6236,73.3691 53.9569,73.7025 53.5,74.5C 54.1272,75.4168 54.4606,76.4168 54.5,77.5C 53.1154,76.4264 51.9487,75.0931 51,73.5C 50.5357,74.0944 50.369,74.7611 50.5,75.5C 49.8333,75.5 49.5,75.1667 49.5,74.5C 48.791,73.596 47.791,73.2627 46.5,73.5C 45.596,74.209 45.2627,75.209 45.5,76.5C 44.596,75.791 44.2627,74.791 44.5,73.5C 43.4324,72.5655 42.099,72.2322 40.5,72.5C 40.5654,72.0618 40.3988,71.7284 40,71.5C 39.7679,72.7375 39.2679,73.7375 38.5,74.5C 38.5,73.1667 38.5,71.8333 38.5,70.5 Z"/></g>
<g><path style="opacity:1" fill="#cfcfcf" d="M 41.5,70.5 C 41.5,69.8333 41.8333,69.5 42.5,69.5C 42.8333,69.5 43.1667,69.5 43.5,69.5C 44.209,70.404 45.209,70.7373 46.5,70.5C 48.9479,71.4731 51.6146,71.8064 54.5,71.5C 54.5,71.8333 54.5,72.1667 54.5,72.5C 49.9639,72.8498 45.6306,72.1831 41.5,70.5 Z"/></g>
<g><path style="opacity:1" fill="#a1a1a1" d="M 66.5,70.5 C 66.8333,70.5 67.1667,70.5 67.5,70.5C 67.369,71.2389 67.5357,71.9056 68,72.5C 68.4169,71.244 69.2502,70.5774 70.5,70.5C 71.1667,70.5 71.5,70.8333 71.5,71.5C 70.7377,73.2624 69.4044,74.2624 67.5,74.5C 67.1583,73.6618 66.4916,73.3284 65.5,73.5C 65.5,73.1667 65.5,72.8333 65.5,72.5C 66.3382,72.1583 66.6716,71.4916 66.5,70.5 Z"/></g>
<g><path style="opacity:1" fill="#f6f6f4" d="M 32.5,69.5 C 32.5,70.1667 32.5,70.8333 32.5,71.5C 33.2905,72.4013 34.2905,73.0679 35.5,73.5C 34.791,74.404 33.791,74.7373 32.5,74.5C 31.0937,74.0269 30.427,73.0269 30.5,71.5C 30.8333,70.5 31.5,69.8333 32.5,69.5 Z"/></g>
<g><path style="opacity:1" fill="#ececeb" d="M 35.5,67.5 C 35.5,67.8333 35.5,68.1667 35.5,68.5C 35.5,70.1667 35.5,71.8333 35.5,73.5C 34.2905,73.0679 33.2905,72.4013 32.5,71.5C 33.4916,71.6716 34.1583,71.3382 34.5,70.5C 34.2627,69.209 34.596,68.209 35.5,67.5 Z"/></g>
<g><path style="opacity:1" fill="#c0c0c2" d="M 60.5,71.5 C 60.5,71.8333 60.5,72.1667 60.5,72.5C 60.631,73.2389 60.4643,73.9056 60,74.5C 59.0228,73.2264 58.1894,73.2264 57.5,74.5C 56.2267,73.9232 56.2267,73.2565 57.5,72.5C 58.4168,71.8728 59.4168,71.5394 60.5,71.5 Z"/></g>
<g><path style="opacity:1" fill="#a4a4a6" d="M 40.5,72.5 C 42.099,72.2322 43.4324,72.5655 44.5,73.5C 43.71,74.6085 43.21,75.9419 43,77.5C 42.3292,76.7476 41.4959,76.4142 40.5,76.5C 40.5,75.1667 40.5,73.8333 40.5,72.5 Z"/></g>
<g><path style="opacity:1" fill="#bbbbba" d="M 46.5,73.5 C 47.791,73.2627 48.791,73.596 49.5,74.5C 48.596,75.209 48.2627,76.209 48.5,77.5C 47.3263,76.4863 46.6596,75.153 46.5,73.5 Z"/></g>
<g><path style="opacity:1" fill="#e7e7e7" d="M 55.5,73.5 C 55.3284,74.4916 55.6618,75.1583 56.5,75.5C 56.5,76.1667 56.5,76.8333 56.5,77.5C 56.5,78.1667 56.1667,78.5 55.5,78.5C 55.5,77.8333 55.1667,77.5 54.5,77.5C 54.4606,76.4168 54.1272,75.4168 53.5,74.5C 53.9569,73.7025 54.6236,73.3691 55.5,73.5 Z"/></g>
<g><path style="opacity:1" fill="#e4e4e5" d="M 60.5,72.5 C 61.391,73.1098 62.391,73.4431 63.5,73.5C 63.5,74.1667 63.8333,74.5 64.5,74.5C 64.5,74.8333 64.5,75.1667 64.5,75.5C 64.1667,75.5 63.8333,75.5 63.5,75.5C 61.5,75.5 59.5,75.5 57.5,75.5C 57.5,75.1667 57.5,74.8333 57.5,74.5C 58.1894,73.2264 59.0228,73.2264 60,74.5C 60.4643,73.9056 60.631,73.2389 60.5,72.5 Z"/></g>
<g><path style="opacity:0.4" fill="#343434" d="M 71.5,71.5 C 72.8333,71.5 74.1667,71.5 75.5,71.5C 75.5,71.8333 75.5,72.1667 75.5,72.5C 72.9616,73.0427 70.6282,74.0427 68.5,75.5C 67.8333,75.5 67.5,75.1667 67.5,74.5C 69.4044,74.2624 70.7377,73.2624 71.5,71.5 Z"/></g>
<g><path style="opacity:1" fill="#dbdbdd" d="M 40.5,72.5 C 40.5,73.8333 40.5,75.1667 40.5,76.5C 40.1667,76.5 39.8333,76.5 39.5,76.5C 38.8333,76.5 38.1667,76.5 37.5,76.5C 37.5,76.1667 37.5,75.8333 37.5,75.5C 38.1667,75.5 38.5,75.1667 38.5,74.5C 39.2679,73.7375 39.7679,72.7375 40,71.5C 40.3988,71.7284 40.5654,72.0618 40.5,72.5 Z"/></g>
<g><path style="opacity:1" fill="#c5c5c5" d="M 56.5,75.5 C 56.8333,75.5 57.1667,75.5 57.5,75.5C 59.5,75.5 61.5,75.5 63.5,75.5C 61.2854,76.2679 58.9521,76.9346 56.5,77.5C 56.5,76.8333 56.5,76.1667 56.5,75.5 Z"/></g>
<g><path style="opacity:0.012" fill="#252525" d="M 65.5,73.5 C 66.4916,73.3284 67.1583,73.6618 67.5,74.5C 67.5,75.1667 67.8333,75.5 68.5,75.5C 67.3285,76.3446 65.9952,77.0113 64.5,77.5C 64.5,76.8333 64.5,76.1667 64.5,75.5C 64.5,75.1667 64.5,74.8333 64.5,74.5C 65.1667,74.5 65.5,74.1667 65.5,73.5 Z"/></g>
<g><path style="opacity:0.447" fill="#292929" d="M 31.5,76.5 C 33.5,76.5 35.5,76.5 37.5,76.5C 38.2876,79.6209 40.2876,81.2876 43.5,81.5C 42.3991,82.5983 41.0657,82.765 39.5,82C 37.4268,79.0597 34.7601,77.2264 31.5,76.5 Z"/></g>
<g><path style="opacity:1" fill="#dfdfdf" d="M 44.5,73.5 C 44.2627,74.791 44.596,75.791 45.5,76.5C 45.5,77.1667 45.5,77.8333 45.5,78.5C 44.8333,78.5 44.1667,78.5 43.5,78.5C 41.6203,78.7709 40.287,78.1042 39.5,76.5C 39.8333,76.5 40.1667,76.5 40.5,76.5C 41.4959,76.4142 42.3292,76.7476 43,77.5C 43.21,75.9419 43.71,74.6085 44.5,73.5 Z"/></g>
<g><path style="opacity:1" fill="#e4e4e3" d="M 46.5,73.5 C 46.6596,75.153 47.3263,76.4863 48.5,77.5C 48.5,78.1667 48.5,78.8333 48.5,79.5C 47.391,79.4431 46.391,79.1098 45.5,78.5C 45.5,77.8333 45.5,77.1667 45.5,76.5C 45.2627,75.209 45.596,74.209 46.5,73.5 Z"/></g>
<g><path style="opacity:1" fill="#dcdcdc" d="M 54.5,77.5 C 55.1667,77.5 55.5,77.8333 55.5,78.5C 54.0813,79.4511 52.4147,79.7845 50.5,79.5C 50.5,78.1667 50.5,76.8333 50.5,75.5C 50.369,74.7611 50.5357,74.0944 51,73.5C 51.9487,75.0931 53.1154,76.4264 54.5,77.5 Z"/></g>
<g><path style="opacity:0.388" fill="#484848" d="M 63.5,75.5 C 63.8333,75.5 64.1667,75.5 64.5,75.5C 64.5,76.1667 64.5,76.8333 64.5,77.5C 61.4841,78.1827 58.4841,79.1827 55.5,80.5C 53.8333,80.5 52.1667,80.5 50.5,80.5C 50.5,80.1667 50.5,79.8333 50.5,79.5C 52.4147,79.7845 54.0813,79.4511 55.5,78.5C 56.1667,78.5 56.5,78.1667 56.5,77.5C 58.9521,76.9346 61.2854,76.2679 63.5,75.5 Z"/></g>
<g><path style="opacity:1" fill="#eeeeec" d="M 49.5,74.5 C 49.5,75.1667 49.8333,75.5 50.5,75.5C 50.5,76.8333 50.5,78.1667 50.5,79.5C 49.8333,79.5 49.1667,79.5 48.5,79.5C 48.5,78.8333 48.5,78.1667 48.5,77.5C 48.2627,76.209 48.596,75.209 49.5,74.5 Z"/></g>
<g><path style="opacity:1" fill="#9f9f9f" d="M 37.5,76.5 C 38.1667,76.5 38.8333,76.5 39.5,76.5C 40.287,78.1042 41.6203,78.7709 43.5,78.5C 43.5,79.1667 43.5,79.8333 43.5,80.5C 43.5,80.8333 43.5,81.1667 43.5,81.5C 40.2876,81.2876 38.2876,79.6209 37.5,76.5 Z"/></g>
<g><path style="opacity:1" fill="#919191" d="M 43.5,78.5 C 44.1667,78.5 44.8333,78.5 45.5,78.5C 46.391,79.1098 47.391,79.4431 48.5,79.5C 49.1667,79.5 49.8333,79.5 50.5,79.5C 50.5,79.8333 50.5,80.1667 50.5,80.5C 48.2436,81.4385 45.9103,81.4385 43.5,80.5C 43.5,79.8333 43.5,79.1667 43.5,78.5 Z"/></g>
<g><path style="opacity:0.395" fill="#282828" d="M 43.5,81.5 C 43.5,81.1667 43.5,80.8333 43.5,80.5C 45.9103,81.4385 48.2436,81.4385 50.5,80.5C 52.1667,80.5 53.8333,80.5 55.5,80.5C 51.7053,82.3842 47.7053,82.7175 43.5,81.5 Z"/></g>
</svg>
